<svg width="85" height="85" viewBox="0 0 85 85" fill="none" xmlns="http://www.w3.org/2000/svg">
<g clip-path="url(#clip0)">
<path d="M18.1388 15.1333L22.2215 7.46475C22.7061 6.55449 24.0779 6.87871 24.1114 7.90934C24.1914 10.3828 23.4908 14.3293 19.8232 19.3544C19.8969 19.3149 18.1388 15.1333 18.1388 15.1333Z" fill="#FFB655"/>
<path d="M66.8612 15.0479L62.7787 7.37915C62.2941 6.46888 60.9223 6.79311 60.8887 7.82373C60.8089 10.2972 61.5093 14.2437 65.1769 19.2688C65.1032 19.2295 66.8612 15.0479 66.8612 15.0479Z" fill="#FFB655"/>
<path d="M23.4213 12.4364L20.3475 10.9026L18.1388 15.0515C18.1388 15.0515 19.8969 19.2331 19.823 19.2725C21.7072 16.6909 22.807 14.3951 23.4213 12.4364Z" fill="#FFA733"/>
<path d="M61.5787 12.4364L64.6525 10.9026L66.8612 15.0515C66.8612 15.0515 65.1031 19.2331 65.177 19.2725C63.2928 16.6909 62.193 14.3951 61.5787 12.4364Z" fill="#FFA733"/>
<path d="M43.4553 34.062C42.824 36.6079 40.2245 38.1741 37.6788 37.5427L9.67702 30.5978C7.13118 29.9664 5.56499 27.367 6.19634 24.8213C6.8277 22.2754 9.42717 20.7092 11.9728 21.3406L39.9747 28.2855C42.5203 28.9169 44.0867 31.5163 43.4553 34.062Z" fill="#FFA733"/>
<path d="M10.4238 12.778C10.4238 12.778 13.895 3.11008 20.4285 0.140234C21.7943 -0.480497 23.1812 0.957693 22.4982 2.29329C20.1006 6.98189 15.7562 15.5028 15.7562 15.5028L10.4238 12.778Z" fill="#FFB655"/>
<path d="M15.1349 8.26006C14.4538 7.91209 13.7325 7.67503 12.9968 7.54852C11.2988 10.3508 10.4238 12.7874 10.4238 12.7874L15.7562 15.5124C15.7562 15.5124 17.0209 13.0318 18.562 10.0113L15.1349 8.26006Z" fill="#FFA733"/>
<path d="M13.6124 11.2387C11.5034 10.1611 8.92067 11.0644 7.94748 13.2236C5.39433 18.8882 2.3096 27.854 7.5107 30.5117C12.7118 33.1695 18.17 25.4165 21.2649 20.029C22.4444 17.9752 21.6635 15.3529 19.5544 14.2753L13.6124 11.2387Z" fill="#FFC477"/>
<path d="M15.2078 12.054L13.6124 11.2387C11.5034 10.1611 8.92068 11.0644 7.94749 13.2236C5.39451 18.8883 2.30962 27.854 7.51071 30.5117C8.73408 31.1368 9.97172 31.1858 11.1893 30.8252C9.69564 25.7605 15.135 12.1855 15.2078 12.054Z" fill="#FFB655"/>
<path d="M41.5449 34.0594C42.1762 36.6053 44.7757 38.1715 47.3214 37.5401L75.3231 30.5952C77.869 29.9638 79.4352 27.3644 78.8037 24.8187C78.1723 22.2728 75.5728 20.7067 73.0272 21.338L45.0254 28.2829C42.4797 28.9143 40.9135 31.5137 41.5449 34.0594Z" fill="#FFA733"/>
<path d="M74.5764 12.778C74.5764 12.778 71.1052 3.11008 64.5717 0.140234C63.2058 -0.480497 61.819 0.957693 62.5019 2.29329C64.8995 6.98189 69.244 15.5028 69.244 15.5028L74.5764 12.778Z" fill="#FFB655"/>
<path d="M69.8652 8.26006C70.5464 7.91209 71.2677 7.67503 72.0033 7.54852C73.7012 10.351 74.5764 12.7874 74.5764 12.7874L69.244 15.5124C69.244 15.5124 67.9793 13.0318 66.4382 10.0113L69.8652 8.26006Z" fill="#FFA733"/>
<path d="M71.3876 11.2387C73.4966 10.1611 76.0793 11.0644 77.0525 13.2236C79.6057 18.8882 82.6904 27.854 77.4893 30.5117C72.2882 33.1695 66.83 25.4165 63.7351 20.029C62.5556 17.9752 63.3365 15.3529 65.4456 14.2753L71.3876 11.2387Z" fill="#FFC477"/>
<path d="M69.7922 12.054L71.3876 11.2387C73.4966 10.1611 76.0793 11.0644 77.0525 13.2236C79.6055 18.8883 82.6904 27.854 77.4893 30.5117C76.266 31.1368 75.0283 31.1858 73.8107 30.8252C75.3046 25.7605 69.8652 12.1855 69.7922 12.054Z" fill="#FFB655"/>
<path d="M69.8295 69.0492L61.8468 61.0665C60.7349 59.9546 58.9152 59.9546 57.8032 61.0665C56.6912 62.1785 56.6912 63.9982 57.8032 65.1102L65.7859 73.0928C66.8979 74.2048 68.7176 74.2048 69.8295 73.0928C70.9415 71.9809 70.9415 70.1612 69.8295 69.0492Z" fill="#FFA733"/>
<path d="M42.3875 65.9015H59.7494C61.3219 65.9015 62.6085 64.6149 62.6085 63.0424C62.6085 61.4699 61.3219 60.1833 59.7494 60.1833H42.3875C40.815 60.1833 39.5284 61.4699 39.5284 63.0424C39.5284 64.615 40.815 65.9015 42.3875 65.9015Z" fill="#FFC477"/>
<path d="M81.3279 47.9367L73.3453 39.954C72.2333 38.842 70.4136 38.842 69.3016 39.954C68.1897 41.066 68.1897 42.8857 69.3016 43.9976L77.2843 51.9803C78.3963 53.0923 80.216 53.0923 81.3279 51.9803C82.4399 50.8684 82.4399 49.0488 81.3279 47.9367Z" fill="#FFA733"/>
<path d="M53.8859 44.7915H71.2478C72.8203 44.7915 74.1069 43.5049 74.1069 41.9324C74.1069 40.3599 72.8203 39.0733 71.2478 39.0733H53.8859C52.3134 39.0733 51.0268 40.3599 51.0268 41.9324C51.0268 43.5049 52.3134 44.7915 53.8859 44.7915Z" fill="#FFC477"/>
<path d="M75.773 58.4761L67.7903 50.4934C66.6784 49.3814 64.8587 49.3814 63.7467 50.4934C62.6347 51.6054 62.6347 53.4251 63.7467 54.537L71.7294 62.5197C72.8414 63.6317 74.661 63.6317 75.773 62.5197C76.885 61.4076 76.885 59.5881 75.773 58.4761Z" fill="#FFA733"/>
<path d="M48.331 55.331H65.6929C67.2654 55.331 68.552 54.0443 68.552 52.4718C68.552 50.8993 67.2654 49.6127 65.6929 49.6127H48.331C46.7585 49.6127 45.4719 50.8993 45.4719 52.4718C45.4718 54.0443 46.7584 55.331 48.331 55.331Z" fill="#FFC477"/>
<path d="M61.4924 60.7834C61.0088 60.4089 60.4048 60.1833 59.7496 60.1833H42.3875C40.815 60.1833 39.5284 61.4699 39.5284 63.0424C39.5284 64.6149 40.815 65.9015 42.3875 65.9015H57.8489C59.227 64.3448 60.4508 62.6174 61.4924 60.7834Z" fill="#FFB655"/>
<path d="M65.2653 49.6101H48.331C46.7585 49.6101 45.4719 50.8968 45.4719 52.4692C45.4719 54.0417 46.7585 55.3284 48.331 55.3284H63.9423C64.5811 53.4439 65.0303 51.5191 65.2653 49.6101Z" fill="#FFB655"/>
<path d="M65.4553 39.0707H53.8859C52.3134 39.0707 51.0268 40.3574 51.0268 41.93C51.0268 43.5026 52.3134 44.7893 53.8859 44.7893H65.4553V39.0707Z" fill="#FFB655"/>
<path d="M15.1706 69.044L23.1533 61.0613C24.2653 59.9494 26.085 59.9494 27.197 61.0613C28.3089 62.1733 28.3089 63.993 27.197 65.105L19.2143 73.0876C18.1023 74.1996 16.2826 74.1996 15.1706 73.0876C14.0587 71.9757 14.0587 70.1561 15.1706 69.044Z" fill="#FFA733"/>
<path d="M42.6126 65.8989H25.2504C23.6779 65.8989 22.3913 64.6123 22.3913 63.0398C22.3913 61.4673 23.6779 60.1807 25.2504 60.1807H42.6123C44.1848 60.1807 45.4714 61.4673 45.4714 63.0398C45.4717 64.6123 44.1851 65.8989 42.6126 65.8989Z" fill="#FFC477"/>
<path d="M3.67208 47.9343L11.6548 39.9514C12.7667 38.8394 14.5864 38.8394 15.6984 39.9514C16.8104 41.0634 16.8104 42.8832 15.6984 43.9952L7.71572 51.978C6.60375 53.09 4.78405 53.09 3.67208 51.978C2.56011 50.866 2.56011 49.0463 3.67208 47.9343Z" fill="#FFA733"/>
<path d="M31.1141 44.7867H13.7522C12.1797 44.7867 10.8931 43.5 10.8931 41.9274C10.8931 40.3548 12.1797 39.0681 13.7522 39.0681H31.1141C32.6866 39.0681 33.9732 40.3548 33.9732 41.9274C33.9732 43.5 32.6866 44.7867 31.1141 44.7867Z" fill="#FFC477"/>
<path d="M9.22714 58.4709L17.2098 50.4882C18.3218 49.3762 20.1415 49.3762 21.2534 50.4882C22.3654 51.6002 22.3654 53.4199 21.2534 54.5319L13.2708 62.5145C12.1588 63.6265 10.3391 63.6265 9.22714 62.5145C8.11517 61.4026 8.11517 59.5829 9.22714 58.4709Z" fill="#FFA733"/>
<path d="M36.669 55.3258H19.3071C17.7346 55.3258 16.448 54.0392 16.448 52.4667C16.448 50.8942 17.7346 49.6075 19.3071 49.6075H36.669C38.2415 49.6075 39.5281 50.8942 39.5281 52.4667C39.5284 54.0392 38.2418 55.3258 36.669 55.3258Z" fill="#FFC477"/>
<path d="M19.7347 49.6049H36.669C38.2415 49.6049 39.5281 50.8916 39.5281 52.4641C39.5281 54.0366 38.2415 55.3232 36.669 55.3232H21.0577C20.4191 53.4387 19.9697 51.5141 19.7347 49.6049Z" fill="#FFB655"/>
<path d="M42.6126 60.1807H25.6774C25.9118 62.0898 26.3607 64.0145 26.9992 65.8991H42.6125C44.185 65.8991 45.4716 64.6124 45.4716 63.0399C45.4718 61.4673 44.1851 60.1807 42.6126 60.1807Z" fill="#FFB655"/>
<path d="M31.1141 39.0681H19.5446V44.7862H31.1141C32.6866 44.7862 33.9732 43.4997 33.9732 41.9273C33.9732 40.3547 32.6866 39.0681 31.1141 39.0681Z" fill="#FFB655"/>
<path d="M64.4536 61.2079V67.4446C64.4536 72.3452 60.4667 76.332 55.5661 76.332C50.6655 76.332 46.6785 72.3454 46.6785 67.4448V61.2079H38.0087V67.4446C38.0087 77.101 45.9095 85.0019 55.566 85.0019C65.2224 85.0019 73.1232 77.101 73.1232 67.4446V61.2079H64.4536Z" fill="#CC7400"/>
<path d="M68.9619 61.2079V65.3694V67.4446C68.9619 74.8311 62.9525 80.8404 55.5661 80.8404C48.1798 80.8404 42.1702 74.8311 42.1702 67.4448V65.3694V61.2079H38.0087V67.4446C38.0087 77.101 45.9095 85.0019 55.566 85.0019C65.2224 85.0019 73.1232 77.101 73.1232 67.4446V61.2079H68.9619V61.2079Z" fill="#AA6100"/>
<path d="M46.6785 67.4447V61.2079H38.0087V67.4446C38.0087 70.5205 38.8114 73.4175 40.2159 75.9384L48.1072 72.268C47.205 70.8778 46.6785 69.2221 46.6785 67.4447Z" fill="#AA6100"/>
<path d="M60.6019 74.7615C59.1693 75.7505 57.4346 76.3314 55.5661 76.3314C54.8461 76.3314 54.1469 76.243 53.4762 76.0808L50.7711 84.3315C52.2966 84.7676 53.9055 85.0013 55.5661 85.0013C58.5054 85.0013 61.2811 84.2682 63.7218 82.9776L60.6019 74.7615Z" fill="#AA6100"/>
<path d="M64.4536 67.4448C64.4536 68.0955 64.3812 68.7294 64.2479 69.3408L72.0148 73.5671C72.7308 71.6586 73.1234 69.5955 73.1234 67.4448V61.2079H64.4536V67.4448Z" fill="#AA6100"/>
<path d="M68.9619 61.2053V65.3668V67.442C68.9619 68.8752 68.7331 70.2553 68.3146 71.5509L72.0148 73.5643C72.7308 71.6558 73.1234 69.5928 73.1234 67.442V61.2053H68.9619Z" fill="#9A4C00"/>
<path d="M52.0687 80.375L50.7711 84.333C52.2966 84.7691 53.9055 85.0028 55.5661 85.0028C58.5054 85.0028 61.2811 84.2697 63.7218 82.9791L62.2325 79.0572C60.2677 80.1895 57.9923 80.8412 55.5661 80.8412C54.3562 80.841 53.1843 80.677 52.0687 80.375Z" fill="#9A4C00"/>
<path d="M42.1702 65.3668V61.2053H38.0087V67.442C38.0087 70.5179 38.8114 73.4149 40.2159 75.9359L43.9945 74.1783C42.8371 72.1977 42.1702 69.8969 42.1702 67.442V65.3668Z" fill="#9A4C00"/>
<path d="M74.632 59.1148C74.8345 56.5764 74.3177 52.4348 70.5447 47.4286C70.0179 46.7299 68.9179 47.003 68.7572 47.8631C68.4298 49.6157 67.4069 52.1386 64.5858 55.065C63.6217 56.0649 62.8705 57.5961 62.8705 59.2162C62.8705 62.4648 65.504 65.0983 68.7526 65.0983C74.1804 65.0986 74.6327 59.1488 74.632 59.1148Z" fill="#9A4C00"/>
<path d="M70.5447 47.429C70.334 47.1496 70.0319 47.0278 69.7347 47.0346C70.8027 55.1278 66.3839 63.8167 65.9155 64.3695C66.7569 64.8337 67.7238 65.0987 68.7527 65.0987C74.1806 65.0987 74.6328 59.1489 74.6323 59.115C74.8345 56.5765 74.3179 52.4349 70.5447 47.429Z" fill="#663A00"/>
<path d="M42.5001 11.3824C32.6952 11.3824 24.7468 23.3375 24.7468 33.1426V46.5852C24.7468 56.39 32.6952 68.3453 42.5001 68.3453C52.305 68.3453 60.2534 56.3902 60.2534 46.5852V33.1426C60.2534 23.3375 52.305 11.3824 42.5001 11.3824Z" fill="#5F4D37"/>
<path d="M33.3149 45.7885V32.3459C33.3149 24.419 38.5104 15.0881 45.6818 11.804C44.6493 11.5297 43.5861 11.3824 42.4999 11.3824C32.695 11.3824 24.7466 23.3375 24.7466 33.1426V46.5852C24.7466 56.39 32.695 68.3453 42.4999 68.3453C44.378 68.3453 46.1876 67.9053 47.8864 67.1274C39.6001 64.9254 33.3149 54.5071 33.3149 45.7885Z" fill="#554431"/>
<path d="M42.5001 11.3824C32.6952 11.3824 24.7468 23.3375 24.7468 33.1426V46.5852C24.7468 50.3462 25.9173 54.4232 27.9127 58.021H57.0877C59.083 54.4231 60.2536 50.3462 60.2536 46.5852V33.1426C60.2534 23.3375 52.305 11.3824 42.5001 11.3824Z" fill="#6A563D"/>
<path d="M33.3149 32.3459C33.3149 24.419 38.5104 15.0881 45.6816 11.804C44.6491 11.5297 43.586 11.3824 42.4997 11.3824C32.6949 11.3824 24.7464 23.3375 24.7464 33.1426V46.5852C24.7464 50.3462 25.917 54.4232 27.9123 58.021H36.9407C34.6663 54.2366 33.3148 49.8303 33.3148 45.7886V32.3459H33.3149V32.3459Z" fill="#5F4D37"/>
<path d="M42.5001 11.3824C32.6952 11.3824 24.7468 23.3375 24.7468 33.1426V46.5852C24.7468 46.8461 24.7536 47.1089 24.7649 47.3729H60.2357C60.2468 47.1089 60.2538 46.8463 60.2538 46.5852V33.1426C60.2535 23.3375 52.305 11.3824 42.5001 11.3824Z" fill="#806749"/>
<path d="M33.3149 32.3459C33.3149 24.419 38.5104 15.0881 45.6818 11.804C44.6493 11.5297 43.5861 11.3824 42.4999 11.3824C32.695 11.3824 24.7466 23.3375 24.7466 33.1426V46.5852C24.7466 46.8461 24.7534 47.1089 24.7646 47.3729H33.3833C33.3392 46.8402 33.3153 46.3114 33.3153 45.7888V32.346H33.3149V32.3459Z" fill="#6A563D"/>
<path d="M42.5001 11.3824C32.6952 11.3824 24.7468 23.3375 24.7468 33.1426V34.7423H60.2536V33.1426C60.2534 23.3375 52.305 11.3824 42.5001 11.3824Z" fill="#957856"/>
<path d="M45.682 11.804C44.6495 11.5297 43.5864 11.3824 42.5001 11.3824C32.6952 11.3824 24.7468 23.3375 24.7468 33.1426V34.7423H33.3152V32.3462C33.315 24.4191 38.5108 15.0882 45.682 11.804Z" fill="#806749"/>
<path d="M36.188 25.2622C38.6176 25.2622 40.5871 23.2927 40.5871 20.8632C40.5871 18.4336 38.6176 16.4641 36.188 16.4641C33.7585 16.4641 31.7889 18.4336 31.7889 20.8632C31.7889 23.2927 33.7585 25.2622 36.188 25.2622Z" fill="#D1E7F8"/>
<path d="M36.188 22.1652C35.8464 22.1652 35.5118 22.0264 35.269 21.7837C35.0262 21.5426 34.8875 21.2062 34.8875 20.8645C34.8875 20.5229 35.0262 20.1865 35.269 19.9454C35.5117 19.7027 35.8464 19.5639 36.188 19.5639C36.5313 19.5639 36.866 19.7027 37.1087 19.9454C37.3498 20.1865 37.4884 20.5229 37.4884 20.8645C37.4884 21.2062 37.3496 21.5426 37.1087 21.7837C36.866 22.0264 36.5313 22.1652 36.188 22.1652Z" fill="#3E3D42"/>
<path d="M48.3345 25.2622C50.7641 25.2622 52.7336 23.2927 52.7336 20.8632C52.7336 18.4336 50.7641 16.4641 48.3345 16.4641C45.905 16.4641 43.9355 18.4336 43.9355 20.8632C43.9355 23.2927 45.905 25.2622 48.3345 25.2622Z" fill="#D1E7F8"/>
<path d="M48.3352 22.1652C47.9935 22.1652 47.659 22.0264 47.4161 21.7837C47.1734 21.5426 47.0346 21.2062 47.0346 20.8645C47.0346 20.5229 47.1734 20.1865 47.4161 19.9454C47.6589 19.7027 47.9935 19.5639 48.3352 19.5639C48.6785 19.5639 49.0132 19.7027 49.2559 19.9454C49.497 20.1865 49.6356 20.5229 49.6356 20.8645C49.6356 21.2062 49.4968 21.5426 49.2559 21.7837C49.0132 22.0264 48.6785 22.1652 48.3352 22.1652Z" fill="#3E3D42"/>
</g>
<defs>
<clipPath id="clip0">
<rect width="85" height="85" fill="white"/>
</clipPath>
</defs>
</svg>
