<svg width="85" height="85" viewBox="0 0 85 85" fill="none" xmlns="http://www.w3.org/2000/svg">
<g clip-path="url(#clip0)">
<path d="M13.4629 23.2018C18.5568 23.2018 22.6862 19.0723 22.6862 13.9783C22.6862 8.88429 18.5568 4.75479 13.4629 4.75479C8.36899 4.75479 4.23956 8.88429 4.23956 13.9783C4.23956 19.0723 8.36899 23.2018 13.4629 23.2018Z" fill="#FFC477"/>
<path d="M13.4619 17.9988C11.2452 17.9988 9.44165 16.1954 9.44165 13.9786C9.44165 11.7618 11.2451 9.95833 13.4619 9.95833C15.6787 9.95833 17.4823 11.7618 17.4823 13.9786C17.4823 16.1954 15.6789 17.9988 13.4619 17.9988Z" fill="#FFA733"/>
<path d="M71.537 23.2018C76.6309 23.2018 80.7603 19.0723 80.7603 13.9783C80.7603 8.88429 76.6309 4.75479 71.537 4.75479C66.4431 4.75479 62.3136 8.88429 62.3136 13.9783C62.3136 19.0723 66.4431 23.2018 71.537 23.2018Z" fill="#FFC477"/>
<path d="M71.5381 17.9988C69.3213 17.9988 67.5177 16.1954 67.5177 13.9786C67.5177 11.7618 69.3212 9.95833 71.5381 9.95833C73.7548 9.95833 75.5582 11.7618 75.5582 13.9786C75.5582 16.1954 73.7546 17.9988 71.5381 17.9988Z" fill="#FFA733"/>
<path d="M42.9882 64.8317H42.0116L28.5748 67.5349C28.5748 67.5349 29.9874 78.3266 36.4368 84.2117C37.9427 85.5858 40.3531 85.1009 41.2102 83.2513C41.7919 81.9964 42.2091 80.6769 42.4997 79.3444C42.7904 80.6767 43.2074 81.9962 43.7891 83.2513C44.6464 85.1009 47.0568 85.5856 48.5627 84.2117C55.0123 78.3264 56.4247 67.5349 56.4247 67.5349L42.9882 64.8317Z" fill="#663A00"/>
<path d="M65.0829 61.5898C65.0829 61.5898 65.8139 75.2863 57.7998 82.9318C55.5897 85.0403 51.9323 83.7637 51.4824 80.7424C50.9034 76.8541 49.0661 71.529 43.8248 66.1499C43.6928 65.7536 45.3018 53.2703 45.3018 53.2703L65.0829 61.5898Z" fill="#9A4C00"/>
<path d="M44.8883 56.5337C45.1224 54.6651 45.3019 53.2729 45.3019 53.2729L65.083 61.5926C65.083 61.5926 65.6409 72.0543 60.432 79.7953C54.3573 76.5605 46.9743 69.9312 44.8883 56.5337Z" fill="#663A00"/>
<path d="M19.9171 61.5898C19.9171 61.5898 19.1861 75.2863 27.2002 82.9318C29.4103 85.0403 33.0677 83.7637 33.5176 80.7424C34.0966 76.8541 35.9339 71.529 41.1752 66.1499C41.3072 65.7536 39.6982 53.2703 39.6982 53.2703L19.9171 61.5898Z" fill="#9A4C00"/>
<path d="M40.1117 56.5337C39.8776 54.6651 39.6981 53.2729 39.6981 53.2729L19.9171 61.5926C19.9171 61.5926 19.3591 72.0543 24.568 79.7953C30.6427 76.5605 38.0257 69.9312 40.1117 56.5337Z" fill="#663A00"/>
<path d="M67.5516 57.5305C67.5516 57.5305 68.2909 66.1407 70.3096 72.3281C71.1294 74.8408 68.7341 77.2053 66.2434 76.3213C60.0645 74.1281 51.679 68.4807 49.8731 54.2665C50.1228 54.2665 58.045 45.9474 58.045 45.9474L67.5516 57.5305Z" fill="#AA6100"/>
<path d="M58.046 45.9474L67.5529 57.5307C67.5529 57.5307 68.2922 66.1409 70.3109 72.3283C70.4585 72.781 70.5005 73.2286 70.4577 73.6534C70.386 73.6551 63.273 73.2462 61.5842 67.0404C60.0963 61.5735 57.6537 55.787 54.3138 49.8378C56.2325 47.8515 58.046 45.9474 58.046 45.9474Z" fill="#9A4C00"/>
<path d="M17.4484 57.8913C17.4484 57.8913 16.7091 66.5017 14.6904 72.6893C13.8706 75.202 16.2659 77.5666 18.7566 76.6825C24.9355 74.4892 33.321 68.8418 35.1269 54.6272C34.8772 54.6272 26.955 46.308 26.955 46.308L17.4484 57.8913Z" fill="#AA6100"/>
<path d="M26.954 46.3106L17.4471 57.8938C17.4471 57.8938 16.7078 66.504 14.6891 72.6914C14.5415 73.1442 14.4995 73.5918 14.5423 74.0166C14.614 74.0183 21.5535 73.7256 23.4158 67.4035C25.0169 61.9687 27.3463 56.1502 30.6862 50.201C28.7675 48.2148 26.954 46.3106 26.954 46.3106Z" fill="#9A4C00"/>
<path d="M77.3922 51.0999C77.3922 51.0999 77.5194 58.4138 73.6517 66.6386C72.1571 69.8171 67.5251 69.4313 66.6053 66.0413C65.3161 61.2899 62.9444 54.842 58.5557 47.1279C58.5834 46.4941 63.2033 28.9178 63.2033 28.9178L77.3922 51.0999Z" fill="#CC7400"/>
<path d="M7.60784 51.0999C7.60784 51.0999 7.48068 58.4138 11.3483 66.6386C12.843 69.8171 17.475 69.4313 18.3947 66.0413C19.684 61.2899 22.0554 54.842 26.4443 47.1279C26.4166 46.4941 21.7967 28.9178 21.7967 28.9178L7.60784 51.0999Z" fill="#CC7400"/>
<path d="M11.9566 58.9252C16.6172 56.2794 21.9484 51.6104 25.555 43.4116C24.2056 38.079 21.7969 28.9153 21.7969 28.9153L7.60784 51.0976C7.60784 51.0976 7.54326 54.8325 8.91737 59.9653C9.97472 59.8141 11.0083 59.4636 11.9566 58.9252Z" fill="#AA6100"/>
<path d="M73.0434 58.9252C68.3828 56.2794 63.0516 51.6104 59.4451 43.4116C60.7944 38.079 63.2032 28.9153 63.2032 28.9153L77.392 51.0976C77.392 51.0976 77.4566 54.8325 76.0825 59.9653C75.0253 59.8141 73.9917 59.4636 73.0434 58.9252Z" fill="#AA6100"/>
<path d="M80.3212 50.0814C76.7011 42.0878 76.8106 32.4813 76.8106 32.4813C76.8108 0 42.5 0 42.5 0C42.5 0 8.18907 0 8.18907 32.4815C8.18907 32.4815 8.2988 42.0878 4.67866 50.0816C3.34257 53.0319 6.57074 55.9991 9.38737 54.4002C15.8716 50.7193 23.3385 42.5905 24.4299 24.9256H60.57C61.6614 42.5905 69.1283 50.7193 75.6125 54.4002C78.4291 55.9989 81.6573 53.0319 80.3212 50.0814Z" fill="#EE8700"/>
<path d="M8.18906 32.4807C8.18906 32.4807 8.2988 42.087 4.67866 50.0808C3.92479 51.7453 4.62421 53.4148 5.88244 54.2669C13.4999 47.1264 11.2755 34.3461 11.2755 34.3329C10.0674 28.2793 10.1944 20.2424 10.1959 20.1605C8.93099 23.6344 8.18906 27.7063 8.18906 32.4807Z" fill="#FF9811"/>
<path d="M76.8108 32.4807C76.8108 32.4807 76.7011 42.087 80.3212 50.0808C81.0751 51.7453 80.3757 53.4148 79.1174 54.2669C71.5003 47.1264 73.7244 34.3461 73.7244 34.3329C74.9325 28.2793 74.8055 20.2424 74.804 20.1605C76.0689 23.6344 76.8108 27.7063 76.8108 32.4807Z" fill="#FF9811"/>
<path d="M44.5466 47.5557H40.4535C35.0796 47.5557 30.6827 51.9527 30.6827 57.3268V59.0433C30.6827 64.4174 35.0796 68.8145 40.4535 68.8145H44.5466C49.9206 68.8145 54.3175 64.4174 54.3175 59.0433V57.3268C54.3175 51.9526 49.9206 47.5557 44.5466 47.5557Z" fill="#FFDAAA"/>
<path d="M38.2287 59.0433V57.3268C38.2287 52.542 41.7154 48.5344 46.273 47.7127C45.7121 47.6116 45.1357 47.5557 44.5465 47.5557H40.4533C35.0794 47.5557 30.6825 51.9527 30.6825 57.3268V59.0433C30.6825 64.4174 35.0794 68.8145 40.4533 68.8145H44.5465C45.1355 68.8145 45.7121 68.7587 46.273 68.6574C41.7156 67.8358 38.2287 63.8284 38.2287 59.0433Z" fill="#FFC477"/>
<path d="M54.3183 59.0434V57.3269C54.3183 51.9528 49.9214 47.5557 44.5474 47.5557H40.4543C35.0804 47.5557 30.6835 51.9528 30.6835 57.3269V59.0434C30.6835 61.1018 31.3301 63.0155 32.4281 64.595C33.0082 64.6721 33.5967 64.7127 34.1912 64.7127C37.2544 64.7127 40.1653 63.6746 42.501 61.8005C44.8366 63.6744 47.7472 64.7124 50.8104 64.7127C50.811 64.7127 50.811 64.7127 50.8115 64.7127C51.4057 64.7127 51.9939 64.6721 52.5738 64.5952C53.6715 63.0155 54.3183 61.1018 54.3183 59.0434Z" fill="#FFC477"/>
<path d="M40.4533 47.5557C35.0794 47.5557 30.6825 51.9528 30.6825 57.3269V59.0434C30.6825 61.1018 31.3291 63.0155 32.4272 64.595C33.0072 64.6721 33.5957 64.7126 34.1902 64.7126C36.0088 64.7126 37.7722 64.3442 39.3948 63.6547C38.6521 62.2792 38.2287 60.7088 38.2287 59.0434V57.3269C38.2287 52.542 41.7154 48.5344 46.273 47.7127C45.7121 47.6116 45.1357 47.5557 44.5465 47.5557H40.4533V47.5557Z" fill="#FFB655"/>
<path d="M42.9939 55.304H42.0059C39.8396 55.304 38.0674 57.0763 38.0674 59.2425C38.0674 61.4087 39.8398 63.1811 42.0059 63.1811H42.9939C45.1602 63.1811 46.9325 61.4087 46.9325 59.2425C46.9325 57.0762 45.1601 55.304 42.9939 55.304Z" fill="#3E3D42"/>
<path d="M42.9939 55.304H42.0059C39.8396 55.304 38.0674 57.0763 38.0674 59.2425C38.0674 60.9757 39.2024 62.4558 40.7655 62.9785C41.3713 62.6336 41.9518 62.2418 42.4998 61.8023C43.0478 62.2419 43.6284 62.6336 44.2342 62.9785C45.7974 62.4558 46.9323 60.9757 46.9323 59.2425C46.9324 57.0762 45.1601 55.304 42.9939 55.304Z" fill="#2D2D30"/>
<path d="M56.3826 14.0396C49.083 8.6961 42.4983 15.3157 42.4983 15.3157C42.4336 15.251 35.8858 8.72598 28.6173 14.0467C25.4777 16.4034 19.2953 22.659 20.8638 34.6032L24.1505 53.1763C24.3986 54.5791 25.7351 57.0963 25.7351 57.0963C29.5647 62.779 37.7994 63.1376 42.1085 57.809L42.4998 57.3253L42.8913 57.8019C47.2004 63.1301 55.4351 62.7715 59.2647 57.089C59.2647 57.089 60.6012 54.5716 60.8494 53.1689L64.136 34.5959C65.7043 22.6519 59.5221 16.3961 56.3826 14.0396Z" fill="#FFC477"/>
<path d="M28.6175 14.0499C25.4779 16.4067 19.2955 22.6624 20.864 34.6067L24.1506 53.1801C24.3988 54.5829 25.7353 57.1002 25.7353 57.1002C28.3088 60.9189 32.8708 62.3292 36.8947 61.2294C36.436 60.7546 36.0096 60.2328 35.6241 59.6609C35.6241 59.6609 34.1341 56.8542 33.8574 55.29L30.1929 34.581C28.6058 22.4938 34.1376 15.6314 37.7905 12.5018C37.7662 12.4937 37.7403 12.4831 37.7148 12.4731C35.2254 11.6636 31.9995 11.5743 28.6175 14.0499Z" fill="#FFB655"/>
<path d="M45.7536 34.9041C43.6516 34.1441 41.3427 34.1441 39.2408 34.9041C26.303 39.5816 24.0836 48.377 23.7206 50.7618L24.148 53.176C24.3962 54.5788 25.7326 57.0961 25.7326 57.0961C29.5622 62.7788 37.7969 63.1374 42.106 57.8088L42.4973 57.325L42.8888 57.8017C47.1979 63.1299 55.4326 62.7713 59.2622 57.0888C59.2622 57.0888 60.5987 54.5713 60.8469 53.1687L61.2795 50.7238C60.9173 48.3414 58.6945 39.5828 45.7536 34.9041Z" fill="#FFB655"/>
<path d="M35.624 59.6638C35.624 59.6638 34.134 56.857 33.8572 55.2928L31.0295 39.312C25.2543 43.8073 23.9869 49.0139 23.7205 50.7651L24.1478 53.1793C24.396 54.5822 25.7324 57.0996 25.7324 57.0996C28.3058 60.9182 32.8676 62.3287 36.8913 61.229C36.4341 60.755 36.0086 60.2344 35.624 59.6638Z" fill="#FFA733"/>
<path d="M53.2945 19.922C52.3889 19.1609 51.7162 18.7294 51.64 18.6859C51.0154 18.3304 50.7976 17.5359 51.1531 16.9115C51.5085 16.287 52.3034 16.0691 52.9274 16.4246C53.159 16.5564 53.9948 17.0583 55.0282 17.9816C55.5641 18.4604 55.6103 19.2829 55.1316 19.8186C54.8745 20.1065 54.1802 20.6668 53.2945 19.922Z" fill="#FFB655"/>
<path d="M57.7545 28.6981C57.5123 26.4575 56.7722 24.4338 55.6405 22.6737C55.2518 22.0694 55.427 21.2642 56.0313 20.8759C56.6354 20.487 57.4407 20.6623 57.829 21.2667C59.1748 23.36 60.0188 25.7551 60.3374 28.3852C60.4237 29.0985 59.9157 29.7468 59.2023 29.8333C59.1494 29.8396 57.8903 29.9557 57.7545 28.6981Z" fill="#FFB655"/>
<path d="M42.1077 57.8069L42.4992 57.3229V51.2625L32.261 61.4031C35.7799 62.0736 39.6055 60.9009 42.1077 57.8069Z" fill="#FFF5CC"/>
<path d="M35.098 58.5957L32.2612 61.4057C33.7945 61.6979 35.3861 61.6398 36.901 61.2253C36.4399 60.7486 36.0113 60.2243 35.6238 59.6498C35.624 59.6501 35.394 59.2161 35.098 58.5957Z" fill="#FFC477"/>
<path d="M42.891 57.8069L42.4995 57.3229V51.2625L52.7377 61.4031C49.219 62.0736 45.3933 60.9009 42.891 57.8069Z" fill="#FFF5CC"/>
<path d="M49.7859 47.0179C49.1011 46.5661 48.1797 46.7554 47.728 47.4402L46.5189 49.274C46.4193 49.2594 38.5795 49.2596 38.4796 49.2743L37.2703 47.4402C36.8186 46.7554 35.8976 46.5665 35.2124 47.0179C34.5276 47.4694 34.3385 48.3906 34.7899 49.0758L37.0942 52.5709C38.0959 54.7844 39.8212 57.2896 42.4998 57.2896C45.1818 57.2896 46.9081 54.7781 47.9093 52.5626L50.2083 49.0759C50.6598 48.3906 50.4707 47.4694 49.7859 47.0179Z" fill="#5F4D37"/>
<path d="M38.8468 52.3546C38.243 52.3546 37.6906 52.5719 37.2616 52.9317C37.9719 54.4029 39.0009 55.9337 40.4134 56.7321C40.9645 56.2794 41.3162 55.5926 41.3162 54.8236C41.3158 53.4599 40.2105 52.3546 38.8468 52.3546Z" fill="#3E3D42"/>
<path d="M46.153 52.3546C46.7568 52.3546 47.3093 52.5719 47.7383 52.9317C47.0279 54.4029 45.9989 55.9337 44.5865 56.7321C44.0353 56.2794 43.6837 55.5926 43.6837 54.8236C43.684 53.4599 44.7893 52.3546 46.153 52.3546Z" fill="#3E3D42"/>
<path d="M30.7167 48.2613C31.0584 48.2613 31.3932 48.4 31.6361 48.6429C31.879 48.884 32.0178 49.2205 32.0178 49.5623C32.0178 49.904 31.879 50.2407 31.6361 50.4817C31.3932 50.7246 31.0584 50.8634 30.7167 50.8634C30.3732 50.8634 30.0384 50.7246 29.7956 50.4817C29.5546 50.2407 29.4158 49.9041 29.4158 49.5623C29.4158 49.2207 29.5546 48.884 29.7956 48.6429C30.0385 48.4 30.3732 48.2613 30.7167 48.2613Z" fill="#3E3D42"/>
<path d="M54.2833 48.2613C54.625 48.2613 54.9598 48.4 55.2027 48.6429C55.4456 48.884 55.5844 49.2205 55.5844 49.5623C55.5844 49.904 55.4456 50.2407 55.2027 50.4817C54.9598 50.7246 54.6251 50.8634 54.2833 50.8634C53.9398 50.8634 53.605 50.7246 53.3622 50.4817C53.1212 50.2407 52.9824 49.9041 52.9824 49.5623C52.9824 49.2207 53.1212 48.884 53.3622 48.6429C53.605 48.4 53.9398 48.2613 54.2833 48.2613Z" fill="#3E3D42"/>
<path d="M27.9773 52.9668C28.319 52.9668 28.6538 53.1056 28.8967 53.3485C29.1396 53.5895 29.2784 53.926 29.2784 54.2679C29.2784 54.6097 29.1396 54.9462 28.8967 55.1873C28.6538 55.4301 28.319 55.5689 27.9773 55.5689C27.6338 55.5689 27.299 55.4301 27.0562 55.1873C26.8152 54.9462 26.6764 54.6097 26.6764 54.2679C26.6764 53.926 26.8152 53.5895 27.0562 53.3485C27.2991 53.1056 27.6338 52.9668 27.9773 52.9668Z" fill="#3E3D42"/>
<path d="M33.4561 52.9668C33.7978 52.9668 34.1327 53.1056 34.3755 53.3485C34.6184 53.5895 34.7572 53.926 34.7572 54.2679C34.7572 54.6097 34.6184 54.9462 34.3755 55.1873C34.1327 55.4301 33.7978 55.5689 33.4561 55.5689C33.1127 55.5689 32.7778 55.4301 32.5351 55.1873C32.294 54.9462 32.1552 54.6097 32.1552 54.2679C32.1552 53.926 32.294 53.5895 32.5351 53.3485C32.778 53.1056 33.1127 52.9668 33.4561 52.9668Z" fill="#3E3D42"/>
<path d="M51.5439 52.9668C51.8855 52.9668 52.2204 53.1056 52.4633 53.3485C52.7062 53.5895 52.8449 53.926 52.8449 54.2679C52.8449 54.6097 52.7062 54.9462 52.4633 55.1873C52.2204 55.4301 51.8857 55.5689 51.5439 55.5689C51.2004 55.5689 50.8655 55.4301 50.6228 55.1873C50.3818 54.9462 50.243 54.6097 50.243 54.2679C50.243 53.926 50.3818 53.5895 50.6228 53.3485C50.8655 53.1056 51.2004 52.9668 51.5439 52.9668Z" fill="#3E3D42"/>
<path d="M57.0227 52.9668C57.3644 52.9668 57.6993 53.1056 57.9421 53.3485C58.185 53.5895 58.3238 53.926 58.3238 54.2679C58.3238 54.6097 58.185 54.9462 57.9421 55.1873C57.6993 55.4301 57.3646 55.5689 57.0227 55.5689C56.6793 55.5689 56.3444 55.4301 56.1017 55.1873C55.8606 54.9462 55.7218 54.6097 55.7218 54.2679C55.7218 53.926 55.8606 53.5895 56.1017 53.3485C56.3446 53.1056 56.6793 52.9668 57.0227 52.9668Z" fill="#3E3D42"/>
<path d="M53.5274 35.6376C54.8337 35.6376 55.8926 34.5787 55.8926 33.2725C55.8926 31.9663 54.8337 30.9075 53.5274 30.9075C52.2211 30.9075 51.1622 31.9663 51.1622 33.2725C51.1622 34.5787 52.2211 35.6376 53.5274 35.6376Z" fill="#663A00"/>
<path d="M31.4726 35.6376C32.7789 35.6376 33.8378 34.5787 33.8378 33.2725C33.8378 31.9663 32.7789 30.9075 31.4726 30.9075C30.1663 30.9075 29.1074 31.9663 29.1074 33.2725C29.1074 34.5787 30.1663 35.6376 31.4726 35.6376Z" fill="#663A00"/>
</g>
<defs>
<clipPath id="clip0">
<rect width="85" height="85" fill="white"/>
</clipPath>
</defs>
</svg>
