<svg width="85" height="85" viewBox="0 0 85 85" fill="none" xmlns="http://www.w3.org/2000/svg">
<g clip-path="url(#clip0)">
<path d="M64.4175 29.2525C64.4175 29.2525 68.4001 35.4429 71.5145 41.6376C72.2965 43.1929 74.5945 42.9148 74.9786 41.2168L76.37 35.0674L83.262 34.6206C84.8859 34.5154 85.5982 32.5175 84.4037 31.4125C81.593 28.8124 76.7487 25.3958 70.4816 25.1029C70.4973 25.1898 64.4175 29.2525 64.4175 29.2525Z" fill="#FF3501"/>
<path d="M84.4037 31.4127C81.593 28.8126 76.7487 25.396 70.4816 25.1031C70.4912 25.1561 68.2445 26.6804 66.4832 27.8664L72.5297 31.4951L76.3702 35.0676L83.2622 34.6208C84.886 34.5154 85.5983 32.5177 84.4037 31.4127Z" fill="#CD2A00"/>
<path d="M25.5031 12.207L30.7993 6.0546C33.1104 3.36996 36.6612 2.10027 40.1513 2.70639C44.6862 3.49397 51.0283 5.23265 56.2222 9.0653C57.6642 10.1295 58.7061 11.6475 59.1767 13.3769C59.7976 15.6578 60.6282 18.7377 60.6282 18.7377L25.5031 12.207Z" fill="#FF3501"/>
<path d="M45.7507 4.0219C43.7376 3.41661 41.8216 2.99659 40.1511 2.70673C36.6608 2.1006 33.1102 3.37029 30.7991 6.05494L25.5031 12.2072L35.132 13.9975L41.0099 7.09536C42.2853 5.61366 43.9386 4.56395 45.7507 4.0219Z" fill="#CD2A00"/>
<path d="M72.6086 28.3505C72.2823 27.7376 71.9083 27.0794 71.4788 26.3801C68.845 22.0966 64.0167 16.1882 56.6257 12.2966C49.3486 8.38248 39.5096 6.48209 29.4738 9.67259C22.2013 11.9068 14.8251 16.9066 9.84177 24.3829C9.7058 24.6774 8.40855 27.6837 11.8112 28.3022C10.5229 32.78 15.3296 31.5751 15.3296 31.5751C19.0062 31.0506 23.3933 30.6135 27.9081 30.6142C33.8601 30.3912 40.2252 30.3668 47.4963 30.5287C53.7845 30.735 60.7344 31.0769 69.9882 32.7418C72.149 33.1305 73.7403 30.4775 72.6086 28.3505Z" fill="#FF6D55"/>
<path d="M72.5297 31.4949C73.0591 30.6138 73.1757 29.4164 72.6086 28.3505C72.2824 27.7376 71.9083 27.0794 71.4788 26.3801C68.8452 22.0966 64.0168 16.1882 56.6257 12.2966C49.3486 8.38248 39.5096 6.48209 29.4738 9.67259C22.2013 11.9068 14.8251 16.9064 9.84177 24.3829C9.7058 24.6774 8.40855 27.6837 11.8112 28.3022C11.8115 28.3022 38.1862 3.34622 72.5297 31.4949Z" fill="#FF5023"/>
<path d="M57.9261 27.1703C57.1576 27.1039 56.372 27.0425 55.5909 26.9879C54.8698 26.9373 54.3261 26.3117 54.3765 25.5907C54.427 24.8697 55.0484 24.3266 55.7737 24.3763C56.5689 24.4319 57.369 24.4945 58.1514 24.5621C58.8718 24.6242 59.4334 25.2617 59.3427 25.979C59.1684 27.3588 57.9645 27.1737 57.9261 27.1703Z" fill="#FF5023"/>
<path d="M51.5136 26.7533C50.3571 26.6999 49.1578 26.6537 47.6253 26.6036L47.5767 26.6022C46.8281 26.5856 46.0865 26.5709 45.3567 26.5581C44.6337 26.5453 44.0581 25.9491 44.0708 25.2263C44.0834 24.5033 44.6761 23.9314 45.4025 23.9403C46.1363 23.9533 46.8821 23.9681 47.6423 23.985L47.7045 23.9867C49.2558 24.0375 50.4657 24.0841 51.6345 24.1381C52.3566 24.1714 52.9551 24.787 52.8817 25.506C52.7542 26.7533 51.534 26.7545 51.5136 26.7533Z" fill="#FF5023"/>
<path d="M33.1245 25.9501C30.8546 25.207 29.6169 22.7648 30.3598 20.495C31.1026 18.2251 33.5452 16.9874 35.8149 17.7303C38.0849 18.4731 42.6684 22.0109 41.9255 24.2807C41.1826 26.5504 35.3944 26.693 33.1245 25.9501Z" fill="#FF3501"/>
<path d="M34.4335 22.36C32.7669 21.8145 31.6579 20.3526 31.4796 18.7156C30.981 19.1918 30.5892 19.7939 30.3598 20.495C29.6167 22.7649 30.8547 25.2072 33.1245 25.9501C35.3944 26.6932 41.1826 26.5506 41.9257 24.2807C42.1325 23.6485 41.9257 22.918 41.4713 22.1771C39.3737 22.9658 36.0319 22.8831 34.4335 22.36Z" fill="#CD2A00"/>
<path d="M17.9599 26.3442C19.9387 26.3442 21.5427 24.7402 21.5427 22.7615C21.5427 20.7827 19.9387 19.1787 17.9599 19.1787C15.9812 19.1787 14.3771 20.7827 14.3771 22.7615C14.3771 24.7402 15.9812 26.3442 17.9599 26.3442Z" fill="white"/>
<path d="M17.9596 24.0708C17.6158 24.0708 17.2789 23.9312 17.0346 23.6868C16.7902 23.4443 16.6506 23.1056 16.6506 22.7618C16.6506 22.418 16.7902 22.0793 17.0346 21.8367C17.2789 21.5924 17.6158 21.4527 17.9596 21.4527C18.3053 21.4527 18.6421 21.5924 18.8865 21.8367C19.129 22.0793 19.2686 22.418 19.2686 22.7618C19.2686 23.1056 19.129 23.4443 18.8865 23.6868C18.6419 23.9312 18.3053 24.0708 17.9596 24.0708Z" fill="#3E3D42"/>
<path d="M20.5825 55.7475C20.5825 55.7475 16.5999 49.5571 13.4855 43.3624C12.7035 41.8071 10.4055 42.0852 10.0214 43.7832L8.63 49.9326L1.73801 50.3794C0.114042 50.4846 -0.598166 52.4825 0.596318 53.5875C3.40697 56.1876 8.25131 59.6042 14.5184 59.8971C14.5026 59.8102 20.5825 55.7475 20.5825 55.7475Z" fill="#0074E8"/>
<path d="M0.596325 53.5875C3.40698 56.1876 8.25132 59.6042 14.5184 59.8971C14.5088 59.8441 16.7555 58.3198 18.5168 57.1337L12.4703 53.5051L8.62984 49.9326L1.73785 50.3794C0.114049 50.4846 -0.59816 52.4825 0.596325 53.5875Z" fill="#2488FF"/>
<path d="M59.4971 72.793L54.2007 78.9454C51.8896 81.63 48.3388 82.8997 44.8487 82.2936C40.3138 81.506 33.9717 79.7673 28.7779 75.9347C27.3358 74.8705 26.2939 73.3523 25.8233 71.6231C25.2022 69.3422 24.3718 66.2623 24.3718 66.2623L59.4971 72.793Z" fill="#2488FF"/>
<path d="M39.2495 80.9783C41.2626 81.5835 43.1786 82.0036 44.8491 82.2934C48.3394 82.8996 51.89 81.6299 54.2011 78.9452L59.4975 72.793L49.8686 71.0027L43.9906 77.9048C42.7149 79.3865 41.0616 80.436 39.2495 80.9783Z" fill="#0074E8"/>
<path d="M12.3914 56.6495C12.7177 57.2624 13.0917 57.9206 13.5212 58.6199C16.155 62.9034 20.9833 68.8118 28.3743 72.7034C35.6514 76.6175 45.4904 78.5179 55.5262 75.3274C62.7989 73.0932 70.1753 68.0936 75.1584 60.6171C75.2944 60.3226 76.5916 57.3163 73.189 56.6978C74.4773 52.22 69.6706 53.4249 69.6706 53.4249C65.994 53.9494 61.6069 54.3865 57.0921 54.3858C51.1401 54.6088 44.775 54.6332 37.5039 54.4713C31.2157 54.265 24.2657 53.9231 15.012 52.2582C12.851 51.8695 11.2597 54.5226 12.3914 56.6495Z" fill="#57A4FF"/>
<path d="M12.4703 53.5053C11.9409 54.3863 11.8243 55.5838 12.3914 56.6496C12.7177 57.2626 13.0917 57.9208 13.5212 58.6201C16.1548 62.9036 20.9833 68.812 28.3743 72.7035C35.6514 76.6177 45.4904 78.5181 55.5262 75.3276C62.7989 73.0933 70.1753 68.0938 75.1584 60.6174C75.2944 60.3229 76.5916 57.3167 73.189 56.6981C73.1886 56.6979 46.8138 81.654 12.4703 53.5053Z" fill="#9BC9FF"/>
<path d="M29.2265 60.6239C28.4313 60.5683 27.6312 60.5057 26.8488 60.4381C26.1284 60.376 25.5949 59.7415 25.6575 59.0212C25.7195 58.3008 26.356 57.7672 27.0742 57.8297C27.8427 57.8961 28.6283 57.9575 29.4094 58.0121C30.1306 58.0627 30.6969 58.6901 30.6238 59.4093C30.5005 60.6239 29.2577 60.626 29.2265 60.6239Z" fill="#9BC9FF"/>
<path d="M39.5978 61.0597C38.864 61.0467 38.1182 61.0319 37.3581 61.015L37.2958 61.0132C35.7445 60.9624 34.5346 60.9157 33.3659 60.8619C32.6437 60.8286 32.0851 60.216 32.1186 59.494C32.1518 58.7718 32.7704 58.2125 33.4866 58.2467C34.643 58.3002 35.8423 58.3463 37.3748 58.3964L37.4235 58.3978C38.172 58.4144 38.9136 58.4291 39.6434 58.4419C40.3664 58.4547 40.9787 59.0525 40.9294 59.7737C40.8419 61.0597 39.6056 61.0597 39.5978 61.0597Z" fill="#9BC9FF"/>
<path d="M51.8755 59.0499C54.1454 59.793 55.3831 62.2352 54.6401 64.505C53.8972 66.7748 51.4548 68.0126 49.185 67.2697C46.9151 66.5269 42.3316 62.9891 43.0745 60.7193C43.8172 58.4499 49.6057 58.3071 51.8755 59.0499Z" fill="#2488FF"/>
<path d="M50.5664 62.64C52.2331 63.1855 53.3421 64.6474 53.5204 66.2844C54.0189 65.8082 54.4107 65.2061 54.6401 64.505C55.3832 62.2351 54.1452 59.7928 51.8755 59.0499C49.6055 58.3068 43.8174 58.4494 43.0743 60.7193C42.8675 61.3515 43.0743 62.082 43.5287 62.8229C45.6263 62.0342 48.968 62.1169 50.5664 62.64Z" fill="#0074E8"/>
<path d="M67.0401 65.8213C69.0188 65.8213 70.6229 64.2173 70.6229 62.2385C70.6229 60.2598 69.0188 58.6558 67.0401 58.6558C65.0614 58.6558 63.4573 60.2598 63.4573 62.2385C63.4573 64.2173 65.0614 65.8213 67.0401 65.8213Z" fill="white"/>
<path d="M67.0404 60.9292C67.3842 60.9292 67.7211 61.0688 67.9655 61.3132C68.2098 61.5557 68.3495 61.8944 68.3495 62.2382C68.3495 62.582 68.2098 62.9207 67.9655 63.1633C67.7211 63.4076 67.3842 63.5473 67.0404 63.5473C66.6948 63.5473 66.3579 63.4076 66.1136 63.1633C65.871 62.9207 65.7314 62.582 65.7314 62.2382C65.7314 61.8944 65.871 61.5557 66.1136 61.3132C66.3583 61.0688 66.6949 60.9292 67.0404 60.9292Z" fill="#3E3D42"/>
</g>
<defs>
<clipPath id="clip0">
<rect width="85" height="85" fill="white"/>
</clipPath>
</defs>
</svg>
