<svg width="85" height="85" viewBox="0 0 85 85" fill="none" xmlns="http://www.w3.org/2000/svg">
<path d="M7.05252 35.1721C7.05252 35.1721 7.05252 51.6939 7.13935 65.476C7.18467 72.6436 13.3615 78.3491 20.2139 80.4518C29.5103 83.3046 44.9188 85.0989 64.4867 76.7849L42.7425 22.8151L7.05252 35.1721Z" fill="#FF5023"/>
<path d="M64.4867 76.7847L42.7423 22.8149L21.3423 30.2244L26.4832 65.9183C26.4832 65.9183 28.3725 75.6483 38.3474 82.8096C45.8407 82.5931 54.6362 80.97 64.4867 76.7847Z" fill="#FF3501"/>
<path d="M7.05252 49.2767C10.9475 49.2767 14.105 46.1192 14.105 42.2242C14.105 38.3292 10.9475 35.1716 7.05252 35.1716C3.15752 35.1716 0 38.3292 0 42.2242C0 46.1192 3.15752 49.2767 7.05252 49.2767Z" fill="#FFC477"/>
<path d="M7.05252 45.5135C5.23913 45.5135 3.76358 44.0381 3.76358 42.2247C3.76358 40.4113 5.23913 38.9359 7.05252 38.9359C8.86591 38.9359 10.3413 40.4113 10.3413 42.2247C10.3416 44.0381 8.86625 45.5135 7.05252 45.5135Z" fill="#FFB655"/>
<path d="M28.881 8.91074C16.8754 8.91074 7.05252 18.7334 7.05252 30.7392V48.8369C7.05252 60.8425 16.8752 70.6654 28.881 70.6654C40.8866 70.6654 50.7094 60.8427 50.7094 48.8369V30.7392C50.7094 18.7336 40.8866 8.91074 28.881 8.91074Z" fill="#FFDAAA"/>
<path d="M50.7094 30.739C50.7094 18.7334 40.8868 8.91057 28.881 8.91057C24.327 8.91057 20.0879 10.3249 16.5792 12.7346C16.3853 13.554 16.2309 14.4001 16.1197 15.272C15.2355 22.202 17.5843 26.3079 21.513 32.3394C22.3791 34.0807 22.6665 35.4959 23.0269 37.2712C23.6593 40.3864 24.3758 43.9174 28.1243 48.8676C31.8729 53.8182 35.0845 55.4512 37.9043 56.9182C42.6734 59.3995 45.0994 62.982 45.2661 63.2184C48.65 59.3703 50.7094 54.3327 50.7094 48.8371V30.739Z" fill="#FFC477"/>
<path d="M28.881 40.8809C26.9489 40.8809 25.3682 42.4616 25.3682 44.3937V47.9064C25.3682 49.8385 26.949 51.4191 28.881 51.4191C30.8129 51.4191 32.3937 49.8383 32.3937 47.9064V44.3937C32.3937 42.4616 30.813 40.8809 28.881 40.8809Z" fill="#FFB655"/>
<path d="M28.1243 48.868C28.7895 49.7463 29.4371 50.519 30.069 51.2068C31.4202 50.7165 32.3939 49.4215 32.3939 47.9064V44.3937C32.3939 42.4616 30.8131 40.8809 28.8811 40.8809C26.949 40.8809 25.3684 42.4616 25.3684 44.3937V44.5326C26.0426 45.8553 26.9288 47.2891 28.1243 48.868Z" fill="#FFA733"/>
<path d="M18.2317 41.8583C19.8461 41.8583 21.1547 40.5496 21.1547 38.9352C21.1547 37.3209 19.8461 36.0122 18.2317 36.0122C16.6173 36.0122 15.3087 37.3209 15.3087 38.9352C15.3087 40.5496 16.6173 41.8583 18.2317 41.8583Z" fill="#663A00"/>
<path d="M23.522 56.5774C23.522 56.5774 21.7317 64.8015 28.881 64.8015C36.0303 64.8015 34.24 56.5774 34.24 56.5774H23.522Z" fill="#FF5023"/>
<path d="M28.881 55.183C28.881 55.183 25.6292 53.8735 23.522 57.0793C23.6452 57.153 28.881 60.285 28.881 60.285C28.881 60.285 34.1168 57.153 34.24 57.0793C32.1327 53.8735 28.881 55.183 28.881 55.183Z" fill="#FF3501"/>
<path d="M23.5216 56.5774C23.5216 56.5774 21.7575 64.6861 28.7345 64.7987C26.5501 61.7322 27.3949 58.4031 28.1661 56.5774H23.5216Z" fill="#CD2A00"/>
<path d="M23.5219 57.0793C23.6021 57.1271 25.8432 58.4677 27.4016 59.4C27.6891 56.9868 28.8809 55.1832 28.8809 55.1832C28.8809 55.1832 25.6292 53.8735 23.5219 57.0793Z" fill="#CD2A00"/>
<path d="M28.881 61.5858C28.6497 61.5858 28.4186 61.5244 28.2131 61.4013L22.242 57.8297C21.6252 57.4609 21.4245 56.6619 21.7934 56.0452C22.1621 55.4284 22.961 55.2275 23.5779 55.5966L28.8813 58.769L34.1845 55.5966C34.8014 55.2279 35.6001 55.4289 35.969 56.0452C36.3377 56.6619 36.1368 57.4606 35.5204 57.8297L29.5495 61.4013C29.3433 61.5244 29.1122 61.5858 28.881 61.5858Z" fill="#554431"/>
<path d="M28.881 8.91074C16.8754 8.91074 7.05252 18.7334 7.05252 30.7392V35.172C11.1539 34.4787 12.8183 28.6039 15.3329 27.307C21.1506 24.3066 24.0288 28.6216 26.4858 24.0492L30.5469 8.974C29.9971 8.93216 29.4414 8.91074 28.881 8.91074Z" fill="#FF5023"/>
<path d="M28.881 8.91074C24.327 8.91074 20.0879 10.325 16.5792 12.7348C16.3853 13.5542 16.2309 14.4002 16.1197 15.2721C15.5539 19.7071 16.3136 22.9854 17.9626 26.352C22.0806 25.4818 24.4308 27.8741 26.4859 24.0496L30.5469 8.97416C29.9971 8.93216 29.4414 8.91074 28.881 8.91074Z" fill="#FF3501"/>
<path d="M79.8396 48.4672C73.5348 40.141 69.5341 43.1705 63.2293 34.8443C56.9474 26.5483 60.1696 24.2043 54.687 15.2516C50.3134 8.4444 45.9242 3.33144 38.1284 2.33684C28.6436 1.12675 21.6314 6.336 20.4214 15.8208C19.7217 21.3057 21.4962 24.3776 25.2749 30.1694C28.2677 35.9873 26.2758 39.2435 31.5814 46.2501C37.8862 54.5763 41.8868 51.5468 48.1916 59.873C51.4839 64.2208 51.9661 67.1244 52.5729 70.0919C53.6764 75.4876 59.3055 78.6521 64.4866 76.7847L79.0194 71.5469C83.4137 69.9633 85.901 65.2836 84.6972 60.7705C83.687 56.9823 83.8922 53.8189 79.8396 48.4672Z" fill="#FF6243"/>
<path d="M66.1558 66.7099C65.4868 63.4383 64.9552 60.2377 61.3259 55.4445C54.3757 46.2658 49.9655 49.6056 43.015 40.4267C37.1663 32.7028 39.3619 29.1132 36.063 22.6997C31.8973 16.3149 29.941 12.9285 30.7124 6.8822C30.9097 5.33609 31.2478 3.89391 31.713 2.56163C25.5855 3.90802 21.3383 8.63632 20.4219 15.8207C19.7222 21.3055 21.4967 24.3775 25.2754 30.1693C28.2682 35.9871 26.2763 39.2434 31.5819 46.2499C37.8866 54.5761 41.8873 51.5466 48.1921 59.8728C51.4844 64.2206 51.9666 67.1242 52.5734 70.0918C53.6769 75.4873 59.306 78.6519 64.4871 76.7845L72.2641 73.9819C69.2597 72.7938 66.8632 70.1695 66.1558 66.7099Z" fill="#FF5023"/>
<path d="M62.1183 43.2299C61.3671 42.6585 60.7127 41.9137 60.0403 41.1781C59.5557 40.6477 59.5926 39.8247 60.123 39.34C60.6534 38.8552 61.4764 38.8922 61.9611 39.4225C62.5719 40.091 63.2056 40.7166 63.8439 41.282C64.3818 41.7585 64.4314 42.5808 63.9551 43.1185C63.6977 43.4089 62.9262 43.8443 62.1183 43.2299Z" fill="#FF5023"/>
<path d="M74.6535 52.3942C72.3959 49.4125 70.8704 48.6284 68.5614 47.4417C67.6712 46.9843 66.6632 46.4659 65.5959 45.8086C64.9841 45.4316 64.7935 44.6302 65.1706 44.0185C65.5476 43.4067 66.3489 43.2161 66.9605 43.5933C67.9419 44.1978 68.8611 44.6703 69.7501 45.1271C72.1877 46.3799 74.1123 47.3693 76.7279 50.8233C77.1615 51.3961 77.0392 52.1994 76.4761 52.646C75.7629 53.2118 74.9095 52.7322 74.6535 52.3942Z" fill="#FF5023"/>
</svg>
