<svg width="85" height="85" viewBox="0 0 85 85" fill="none" xmlns="http://www.w3.org/2000/svg">
<g clip-path="url(#clip0)">
<path d="M43.58 59.4708H40.8557C35.2034 59.4708 30.5789 64.0955 30.5789 69.7477C30.5789 75.4 35.2034 80.0245 40.8557 80.0245H43.58C49.2323 80.0245 53.8569 75.3998 53.8569 69.7477C53.8569 64.0955 49.2323 59.4708 43.58 59.4708Z" fill="#9A4C00"/>
<path d="M40.3638 69.8098C40.3638 65.3652 43.2239 61.5575 47.1942 60.1326C46.0684 59.7062 44.8505 59.4708 43.5802 59.4708H40.8559C35.2036 59.4708 30.579 64.0954 30.579 69.7477C30.579 75.4 35.2036 80.0245 40.8559 80.0245H43.5802C44.788 80.0245 45.9481 79.8119 47.0267 79.4247C43.1437 77.954 40.3638 74.1918 40.3638 69.8098Z" fill="#663A00"/>
<path d="M64.9327 27.2473C64.9327 27.2473 73.267 27.985 76.9011 39.8712C77.5716 42.0643 76.0566 44.3106 73.7727 44.517C69.8484 44.8718 63.9904 44.5781 60.3721 40.5655C60.501 40.4747 64.9327 27.2473 64.9327 27.2473Z" fill="#AA6100"/>
<path d="M69.5224 29.0814C71.1578 33.4959 71.0896 38.67 69.3177 44.5374C66.1626 44.253 62.7739 43.2291 60.3721 40.5655C60.501 40.4745 64.9327 27.2473 64.9327 27.2473C64.9327 27.2473 66.9991 27.4307 69.5224 29.0814Z" fill="#9A4C00"/>
<path d="M71.797 38.4538C70.38 35.6559 68.0797 32.9243 66.2969 31.6566C66.2969 31.6566 64.8765 38.3148 64.5199 39.3455C65.7069 39.9737 68.6219 40.2127 70.6088 40.3039C71.5848 40.3484 72.2386 39.3252 71.797 38.4538Z" fill="#9A4C00"/>
<path d="M70.6933 36.5493C70.6629 37.757 70.5397 39.0041 70.3246 40.2898C68.3535 40.1893 65.6521 39.9441 64.5204 39.3453C64.877 38.3147 66.2974 31.6565 66.2974 31.6565C67.6693 32.6321 69.3466 34.4762 70.6933 36.5493Z" fill="#663A00"/>
<path d="M55.7146 36.312C55.7146 36.312 98.133 32.5481 80.8675 6.14738C79.4186 3.93191 75.9757 5.08239 76.1655 7.72303C76.75 15.8593 73.1455 25.4757 52.1758 24.3053L55.7146 36.312Z" fill="#FFEB99"/>
<path d="M76.2087 6.99787C76.6265 4.89114 79.5592 4.14689 80.8675 6.14738C98.133 32.5481 55.7146 36.312 55.7146 36.312L53.7171 29.5348C65.3841 29.8867 81.9964 27.0826 76.2087 6.99787Z" fill="#FFE477"/>
<path d="M55.7146 36.312L52.1758 24.3051C57.9491 24.6272 62.4038 24.1307 65.8196 23.0735C66.4191 23.7231 66.9684 24.4076 67.4653 25.1277C69.0788 27.4662 70.0883 30.0815 70.4952 32.959C63.1282 35.6538 55.7146 36.312 55.7146 36.312Z" fill="#FFE477"/>
<path d="M70.4951 32.9592C63.128 35.6538 55.7142 36.3122 55.7142 36.3122L53.7167 29.535C58.5367 29.6804 64.1991 29.2854 68.7791 27.3577C69.6413 29.0957 70.213 30.9642 70.4951 32.9592Z" fill="#FFDA44"/>
<path d="M20.0674 27.2473C20.0674 27.2473 11.7331 27.985 8.09907 39.8712C7.42853 42.0643 8.94359 44.3106 11.2275 44.517C15.1517 44.8718 21.0097 44.5781 24.6281 40.5655C24.4992 40.4747 20.0674 27.2473 20.0674 27.2473Z" fill="#AA6100"/>
<path d="M15.4778 29.0814C13.8423 33.4959 13.9106 38.67 15.6825 44.5374C18.8376 44.253 22.2263 43.2291 24.628 40.5655C24.4992 40.4745 20.0674 27.2473 20.0674 27.2473C20.0674 27.2473 18.001 27.4307 15.4778 29.0814Z" fill="#9A4C00"/>
<path d="M13.203 38.4538C14.62 35.6559 16.9203 32.9243 18.7031 31.6566C18.7031 31.6566 20.1235 38.3148 20.4801 39.3455C19.2931 39.9737 16.3781 40.2127 14.3912 40.3039C13.4152 40.3484 12.7616 39.3252 13.203 38.4538Z" fill="#9A4C00"/>
<path d="M14.3069 36.5493C14.3372 37.757 14.4604 39.0041 14.6756 40.2898C16.6467 40.1893 19.3481 39.9441 20.4798 39.3453C20.1232 38.3147 18.7028 31.6565 18.7028 31.6565C17.3307 32.6321 15.6534 34.4762 14.3069 36.5493Z" fill="#663A00"/>
<path d="M29.2854 36.312C29.2854 36.312 -13.133 32.5481 4.13242 6.14738C5.5814 3.93191 9.02422 5.08239 8.83447 7.72303C8.24993 15.8593 11.8545 25.4757 32.8242 24.3053L29.2854 36.312Z" fill="#FFEB99"/>
<path d="M8.79131 6.99787C8.37345 4.89114 5.44078 4.14689 4.13242 6.14738C-13.133 32.5481 29.2854 36.312 29.2854 36.312L31.2829 29.5348C19.616 29.8867 3.00352 27.0826 8.79131 6.99787Z" fill="#FFE477"/>
<path d="M29.2854 36.312L32.8242 24.3051C27.0509 24.6272 22.5962 24.1307 19.1804 23.0735C18.5809 23.7231 18.0316 24.4076 17.5347 25.1277C15.9212 27.4662 14.9117 30.0815 14.5048 32.959C21.872 35.6538 29.2854 36.312 29.2854 36.312Z" fill="#FFE477"/>
<path d="M14.5049 32.9592C21.872 35.6538 29.2858 36.3122 29.2858 36.3122L31.2832 29.535C26.4635 29.6804 20.8009 29.2854 16.221 27.3577C15.3587 29.0957 14.787 30.9642 14.5049 32.9592Z" fill="#FFDA44"/>
<path d="M53.7171 78.4371C49.61 78.4371 46.2686 75.0957 46.2686 70.9886C46.2686 66.8816 49.61 63.5402 53.7171 63.5402C57.8241 63.5402 61.1655 66.8816 61.1655 70.9886C61.1655 75.0959 57.8241 78.4371 53.7171 78.4371ZM53.7171 66.1423C51.0447 66.1423 48.8708 68.3165 48.8708 70.9886C48.8708 73.6608 51.0449 75.835 53.7171 75.835C56.3894 75.835 58.5634 73.6608 58.5634 70.9886C58.5634 68.3165 56.3894 66.1423 53.7171 66.1423Z" fill="#FFCD00"/>
<path d="M42.5001 18.9593C42.5001 18.9593 10.3341 18.5359 20.7033 45.8348C20.7033 46.2582 31.4957 69.7477 31.4957 69.7477H53.5041C53.5041 69.7477 64.2966 46.258 64.2966 45.8348C74.666 18.5363 42.5001 18.9593 42.5001 18.9593Z" fill="#CC7400"/>
<path d="M42.4772 18.9591C41.5179 18.9528 10.4938 18.957 20.7033 45.8348C20.7033 46.2582 31.4958 69.7477 31.4958 69.7477H42.9516C39.7735 62.8135 32.3808 46.6438 32.3808 46.2746C26.036 29.5713 34.0187 22.206 42.4772 18.9591Z" fill="#AA6100"/>
<path d="M49.7121 26.3488C47.4151 25.796 44.7569 25.4653 42.5982 25.4641L42.5323 25.4654L42.401 25.4641C41.5855 25.4641 40.6354 25.5154 39.667 25.6123C38.952 25.6832 38.3145 25.1621 38.2428 24.4472C38.1711 23.7324 38.6927 23.0947 39.4079 23.023C40.4606 22.9177 41.5005 22.8618 42.4148 22.8618L42.5195 22.8628L42.5853 22.8618C43.7158 22.8618 46.7327 22.9551 50.3211 23.8189C51.0197 23.9869 51.4596 24.6921 51.2815 25.3882C50.9423 26.7144 49.8146 26.3734 49.7121 26.3488Z" fill="#AA6100"/>
<path d="M55.5174 28.5877C54.9587 28.2538 54.3401 27.9384 53.6786 27.65C53.02 27.363 52.7183 26.5963 53.0055 25.9376C53.2926 25.279 54.0591 24.9777 54.718 25.2645C55.481 25.5971 56.1992 25.9636 56.8528 26.3544C57.4695 26.723 57.6946 27.537 57.3017 28.1388C56.6079 29.2008 55.7265 28.713 55.5174 28.5877Z" fill="#AA6100"/>
<path d="M46.2386 54.9344H38.1971C32.494 54.9344 27.8278 59.6006 27.8278 65.3038C27.8278 71.0069 32.494 75.6731 38.1971 75.6731H46.2386C51.9417 75.6731 56.6079 71.0069 56.6079 65.3038C56.6079 59.6006 51.9417 54.9344 46.2386 54.9344Z" fill="#AA6100"/>
<path d="M37.9568 65.3038C37.9568 61.2122 39.7255 57.5145 42.5348 54.9345H38.1973C32.4942 54.9345 27.828 59.6006 27.828 65.3038C27.828 71.0069 32.4942 75.6731 38.1973 75.6731H42.5348C39.7255 73.0931 37.9568 69.3954 37.9568 65.3038Z" fill="#9A4C00"/>
<path d="M38.5541 62.9791C40.3004 64.0059 40.8839 66.2539 39.8571 68.0002C38.8303 69.7465 36.5823 70.3301 34.836 69.3033C33.0897 68.2765 31.1684 65.242 32.195 63.4957C33.2218 61.7494 36.8076 61.9524 38.5541 62.9791Z" fill="#2D2D30"/>
<path d="M38.5541 62.9791C36.8078 61.9524 33.2218 61.7494 32.1952 63.4957C31.9508 63.9114 31.8749 64.4003 31.9224 64.9175C33.3935 64.6059 35.2618 64.9246 36.3786 65.581C37.7808 66.4053 38.4309 68.0168 38.1022 69.5242C38.8122 69.2295 39.4374 68.7139 39.857 68.0002C40.8838 66.2537 40.3004 64.0057 38.5541 62.9791Z" fill="#1D1D1F"/>
<path d="M45.8816 62.9791C44.1353 64.0059 43.5518 66.2539 44.5786 68.0002C45.6054 69.7465 47.8534 70.3301 49.5997 69.3033C51.346 68.2765 53.2673 65.242 52.2407 63.4957C51.2139 61.7494 47.6281 61.9524 45.8816 62.9791Z" fill="#2D2D30"/>
<path d="M29.0613 45.5334C30.7365 45.5334 32.0946 44.1753 32.0946 42.5001C32.0946 40.8249 30.7365 39.4668 29.0613 39.4668C27.3861 39.4668 26.028 40.8249 26.028 42.5001C26.028 44.1753 27.3861 45.5334 29.0613 45.5334Z" fill="#2D2D30"/>
<path d="M55.9369 45.5334C57.6121 45.5334 58.9701 44.1753 58.9701 42.5001C58.9701 40.8249 57.6121 39.4668 55.9369 39.4668C54.2616 39.4668 52.9036 40.8249 52.9036 42.5001C52.9036 44.1753 54.2616 45.5334 55.9369 45.5334Z" fill="#2D2D30"/>
<path d="M45.8816 62.9791C47.628 61.9524 51.2139 61.7494 52.2405 63.4957C52.4849 63.9114 52.5608 64.4003 52.5133 64.9175C51.0422 64.6059 49.1739 64.9246 48.0571 65.581C46.6549 66.4053 46.0048 68.0168 46.3335 69.5242C45.6235 69.2295 44.9983 68.7139 44.5788 68.0002C43.552 66.2537 44.1353 64.0057 45.8816 62.9791Z" fill="#1D1D1F"/>
<path d="M48.8708 70.9888C48.8708 68.8917 50.2098 67.102 52.0777 66.4285C52.5244 65.4661 52.6926 64.4593 52.3318 63.6715C48.8849 64.323 46.2688 67.3551 46.2688 70.9888C46.2688 75.0958 49.6102 78.4372 53.7172 78.4372V75.8353C51.0447 75.8351 48.8708 73.661 48.8708 70.9888Z" fill="#FFCD00"/>
</g>
<defs>
<clipPath id="clip0">
<rect width="85" height="85" fill="white"/>
</clipPath>
</defs>
</svg>
