<svg width="85" height="85" viewBox="0 0 85 85" fill="none" xmlns="http://www.w3.org/2000/svg">
<path d="M30.822 27.9846V44.7509C30.822 46.415 31.3358 48.0519 32.3519 49.3699C33.1964 50.4652 34.487 51.5076 36.443 51.9396C36.58 52.2155 36.443 25.1632 36.443 25.1632L30.822 27.9846Z" fill="#9A4C00"/>
<path d="M81.4104 27.9846V44.7509C81.4104 46.415 80.8966 48.0519 79.8805 49.3699C79.036 50.4652 77.7454 51.5076 75.7894 51.9396C75.6524 52.2155 75.7894 25.1632 75.7894 25.1632L81.4104 27.9846Z" fill="#663A00"/>
<path d="M34.2916 42.9572C38.1867 42.9572 41.3442 39.7997 41.3442 35.9046C41.3442 32.0096 38.1867 28.8521 34.2916 28.8521C30.3966 28.8521 27.2391 32.0096 27.2391 35.9046C27.2391 39.7997 30.3966 42.9572 34.2916 42.9572Z" fill="#FFA733"/>
<path d="M34.291 39.1928C32.4776 39.1928 31.002 37.7174 31.002 35.904C31.002 34.0906 32.4776 32.6152 34.291 32.6152C36.1044 32.6152 37.5798 34.0906 37.5798 35.904C37.5798 37.7174 36.1045 39.1928 34.291 39.1928Z" fill="#FF9811"/>
<path d="M77.9473 42.9572C81.8423 42.9572 84.9999 39.7997 84.9999 35.9046C84.9999 32.0096 81.8423 28.8521 77.9473 28.8521C74.0523 28.8521 70.8947 32.0096 70.8947 35.9046C70.8947 39.7997 74.0523 42.9572 77.9473 42.9572Z" fill="#FFB655"/>
<path d="M77.9481 39.1928C76.1347 39.1928 74.6591 37.7174 74.6591 35.904C74.6591 34.0906 76.1347 32.6152 77.9481 32.6152C79.7615 32.6152 81.2369 34.0906 81.2369 35.904C81.2369 37.7174 79.7615 39.1928 77.9481 39.1928Z" fill="#FFA733"/>
<path d="M56.1195 2.58987C44.1138 2.58987 34.291 12.4126 34.291 24.4184V42.5164C34.291 54.5221 44.1137 64.345 56.1195 64.345C68.1252 64.345 77.9481 54.5223 77.9481 42.5164V24.4184C77.9481 12.4128 68.1252 2.58987 56.1195 2.58987Z" fill="#FFC477"/>
<path d="M39.4951 42.5164V24.4184C39.4951 13.2928 47.9307 4.04351 58.7215 2.74675C57.8677 2.64415 56.9996 2.58987 56.1195 2.58987C44.1138 2.58987 34.291 12.4126 34.291 24.4184V42.5164C34.291 54.5221 44.1137 64.345 56.1195 64.345C56.9998 64.345 57.8677 64.2907 58.7215 64.1881C47.9309 62.8915 39.4951 53.6421 39.4951 42.5164Z" fill="#FFB655"/>
<path d="M56.1196 34.5602C54.1875 34.5602 52.6068 36.1409 52.6068 38.073V41.5857C52.6068 43.5178 54.1876 45.0985 56.1196 45.0985C58.0517 45.0985 59.6323 43.5177 59.6323 41.5857V38.073C59.6323 36.1411 58.0515 34.5602 56.1196 34.5602Z" fill="#FFA733"/>
<path d="M56.1196 41.5859V38.0732C56.1196 36.7805 56.8291 35.648 57.876 35.038C57.3581 34.7364 56.7591 34.5602 56.1196 34.5602C54.1875 34.5602 52.6068 36.1411 52.6068 38.073V41.5857C52.6068 43.5178 54.1876 45.0985 56.1196 45.0985C56.7591 45.0985 57.3582 44.9225 57.876 44.6207C56.8291 44.0111 56.1196 42.8785 56.1196 41.5859Z" fill="#FF9811"/>
<path d="M45.2811 35.5387C46.8955 35.5387 48.2041 34.2301 48.2041 32.6157C48.2041 31.0013 46.8955 29.6926 45.2811 29.6926C43.6667 29.6926 42.358 31.0013 42.358 32.6157C42.358 34.2301 43.6667 35.5387 45.2811 35.5387Z" fill="#663A00"/>
<path d="M66.9579 35.5387C68.5723 35.5387 69.881 34.2301 69.881 32.6157C69.881 31.0013 68.5723 29.6926 66.9579 29.6926C65.3435 29.6926 64.0349 31.0013 64.0349 32.6157C64.0349 34.2301 65.3435 35.5387 66.9579 35.5387Z" fill="#663A00"/>
<path d="M45.5085 48.9061C45.5085 54.7424 50.2835 59.5172 56.1195 59.5172C61.9557 59.5172 66.7305 54.7423 66.7305 48.9063V48.9061C66.7305 47.9867 65.9852 47.2414 65.0658 47.2414H47.173C46.2536 47.2414 45.5085 47.9867 45.5085 48.9061Z" fill="#3E3D42"/>
<path d="M48.9493 47.2414V49.2582C48.9493 51.0724 50.4336 52.5568 52.2479 52.5568H59.9911C61.8053 52.5568 63.2897 51.0724 63.2897 49.2582V47.2414H48.9493Z" fill="white"/>
<path d="M51.1775 47.2414H47.1732C46.2538 47.2414 45.5085 47.9867 45.5085 48.9061V48.9063C45.5085 54.7424 50.2835 59.5172 56.1195 59.5172C58.1775 59.5172 60.1021 58.9214 61.7332 57.8969C50.7691 56.6815 51.1772 47.2567 51.1775 47.2414Z" fill="#2D2D30"/>
<path d="M51.1776 47.2414H48.9493V49.2582C48.9493 51.0724 50.4336 52.5568 52.2479 52.5568H52.589C51.0262 49.899 51.1772 47.2567 51.1776 47.2414Z" fill="#D1E7F8"/>
<path d="M41.3745 46.1668C43.4772 46.1668 45.1818 44.4622 45.1818 42.3596C45.1818 40.2569 43.4772 38.5523 41.3745 38.5523C39.2718 38.5523 37.5673 40.2569 37.5673 42.3596C37.5673 44.4622 39.2718 46.1668 41.3745 46.1668Z" fill="#FF3F62"/>
<path d="M70.8645 46.1668C72.9672 46.1668 74.6718 44.4622 74.6718 42.3596C74.6718 40.2569 72.9672 38.5523 70.8645 38.5523C68.7618 38.5523 67.0573 40.2569 67.0573 42.3596C67.0573 44.4622 68.7618 46.1668 70.8645 46.1668Z" fill="#FF5023"/>
<path d="M79.1803 29.0349C75.6531 29.2334 72.9233 25.4788 70.2808 24.8031C66.7976 23.9123 62.5821 25.5173 60.4532 23.9423C56.078 20.7056 58.9279 19.0994 56.9428 14.8921L68.4558 6.47449C68.4558 6.47449 81.4104 10.0565 81.4104 23.8764V29.0427L79.1803 29.0349Z" fill="#9A4C00"/>
<path d="M64.5049 18.062C61.1522 15.3474 62.0407 13.7867 61.8996 11.2679L56.9426 14.892C58.9275 19.0996 56.0777 20.7058 60.4531 23.9423C62.5821 25.5173 66.7974 23.9122 70.2806 24.8031C72.9231 25.4789 75.6531 29.2338 79.1801 29.0349L81.4104 29.0425V23.8762C81.4104 23.8058 81.4079 23.7371 81.4072 23.6672C78.9548 22.488 76.9209 20.0505 74.8595 19.4261C71.2166 18.3231 66.6838 19.8261 64.5049 18.062Z" fill="#663A00"/>
<path d="M54.0397 1.42177C41.27 1.42177 30.8222 11.8695 30.8222 24.6392V29.2611C36.5431 28.2904 42.4844 30.2003 46.5895 28.2851C52.0008 25.7607 54.0362 19.6708 57.1259 16.618C63.6633 10.1582 66.146 13.8133 68.4558 6.47416C64.4884 3.31536 59.4746 1.42177 54.0397 1.42177Z" fill="#AA6100"/>
<path d="M58.591 1.87367C57.1183 1.57766 55.5964 1.42177 54.0397 1.42177C41.2701 1.42177 30.8222 11.8695 30.8222 24.6392V29.2611C33.805 28.755 36.8473 29.0317 39.6586 29.1413C39.9301 16.8105 47.7148 6.24788 58.591 1.87367Z" fill="#9A4C00"/>
<path d="M3.5838 47.2179V63.9841C3.5838 65.6482 4.09762 67.2852 5.11365 68.6032C5.95818 69.6984 7.24879 70.7408 9.2048 71.1728C9.34177 71.4485 9.2048 44.3964 9.2048 44.3964L3.5838 47.2179Z" fill="#AA6100"/>
<path d="M54.1722 47.2179V63.9841C54.1722 65.6482 53.6583 67.2852 52.6423 68.6032C51.7978 69.6984 50.5072 70.7408 48.5512 71.1728C48.4142 71.4485 48.5512 44.3964 48.5512 44.3964L54.1722 47.2179Z" fill="#9A4C00"/>
<path d="M7.05256 62.1899C10.9476 62.1899 14.1051 59.0324 14.1051 55.1374C14.1051 51.2423 10.9476 48.0848 7.05256 48.0848C3.15754 48.0848 0 51.2423 0 55.1374C0 59.0324 3.15754 62.1899 7.05256 62.1899Z" fill="#FFB655"/>
<path d="M7.05257 58.426C5.23917 58.426 3.76361 56.9506 3.76361 55.1372C3.76361 53.3238 5.23917 51.8484 7.05257 51.8484C8.86597 51.8484 10.3414 53.3238 10.3414 55.1372C10.3417 56.9506 8.86631 58.426 7.05257 58.426Z" fill="#FFA733"/>
<path d="M50.7091 62.1899C54.6041 62.1899 57.7616 59.0324 57.7616 55.1374C57.7616 51.2423 54.6041 48.0848 50.7091 48.0848C46.814 48.0848 43.6565 51.2423 43.6565 55.1374C43.6565 59.0324 46.814 62.1899 50.7091 62.1899Z" fill="#FFC477"/>
<path d="M50.7099 58.426C48.8965 58.426 47.4209 56.9506 47.4209 55.1372C47.4209 53.3238 48.8965 51.8484 50.7099 51.8484C52.5233 51.8484 53.9987 53.3238 53.9987 55.1372C53.9987 56.9506 52.5233 58.426 50.7099 58.426Z" fill="#FFB655"/>
<path d="M28.8811 21.9966V21.8231C16.8755 21.8231 7.05258 31.6458 7.05258 43.6517V61.7497C7.05258 73.7553 16.8753 83.5782 28.8811 83.5782C40.8868 83.5782 50.7097 73.7555 50.7097 61.7497V43.6517C50.7097 31.646 40.8868 21.9966 28.8811 21.9966Z" fill="#FFDAAA"/>
<path d="M12.2567 61.7497V43.6517C12.2567 32.526 20.6924 23.2766 31.4831 21.98C30.6293 21.8774 29.7612 21.8231 28.8811 21.8231C16.8755 21.8231 7.05258 31.6458 7.05258 43.6517V61.7497C7.05258 73.7553 16.8753 83.5782 28.8811 83.5782C29.7614 83.5782 30.6293 83.5239 31.4831 83.4213C20.6925 82.1248 12.2567 72.8753 12.2567 61.7497Z" fill="#FFC477"/>
<path d="M28.8812 53.7935C26.9491 53.7935 25.3684 55.3741 25.3684 57.3062V60.819C25.3684 62.7511 26.9492 64.3317 28.8812 64.3317C30.8131 64.3317 32.3939 62.7509 32.3939 60.819V57.3062C32.3939 55.3741 30.8133 53.7935 28.8812 53.7935Z" fill="#FFB655"/>
<path d="M28.8812 60.819V57.3062C28.8812 56.0136 29.5907 54.881 30.6376 54.2711C30.1196 53.9694 29.5207 53.7933 28.8812 53.7933C26.9491 53.7933 25.3684 55.3741 25.3684 57.3061V60.8188C25.3684 62.7509 26.9492 64.3316 28.8812 64.3316C29.5207 64.3316 30.1198 64.1556 30.6376 63.8538C29.5907 63.2443 28.8812 62.1117 28.8812 60.819Z" fill="#FFA733"/>
<path d="M18.0427 54.7713C19.6571 54.7713 20.9658 53.4626 20.9658 51.8482C20.9658 50.2339 19.6571 48.9252 18.0427 48.9252C16.4284 48.9252 15.1197 50.2339 15.1197 51.8482C15.1197 53.4626 16.4284 54.7713 18.0427 54.7713Z" fill="#663A00"/>
<path d="M39.7196 54.7713C41.3339 54.7713 42.6426 53.4626 42.6426 51.8482C42.6426 50.2339 41.3339 48.9252 39.7196 48.9252C38.1052 48.9252 36.7965 50.2339 36.7965 51.8482C36.7965 53.4626 38.1052 54.7713 39.7196 54.7713Z" fill="#663A00"/>
<path d="M18.2702 68.1392C18.2702 73.9755 23.0451 78.7503 28.8811 78.7503C34.7173 78.7503 39.4921 73.9753 39.4921 68.1393V68.1392C39.4921 67.2198 38.7469 66.4745 37.8275 66.4745H19.935C19.0156 66.4745 18.2702 67.2199 18.2702 68.1392Z" fill="#3E3D42"/>
<path d="M23.9392 66.4745H19.9348C19.0154 66.4745 18.2702 67.2198 18.2702 68.1392V68.1393C18.2702 73.9755 23.0451 78.7503 28.8811 78.7503C30.9391 78.7503 32.8637 78.1545 34.4948 77.13C23.5309 75.9147 23.9388 66.4899 23.9392 66.4745Z" fill="#2D2D30"/>
<path d="M21.711 66.4745V68.4913C21.711 70.3055 23.1954 71.7899 25.0096 71.7899H32.7528C34.567 71.7899 36.0514 70.3055 36.0514 68.4913V66.4745H21.711Z" fill="white"/>
<path d="M23.9392 66.4745H21.7109V68.4913C21.7109 70.3055 23.1952 71.7899 25.0095 71.7899H25.3506C23.7877 69.1323 23.9388 66.4898 23.9392 66.4745Z" fill="#D1E7F8"/>
<path d="M14.1362 65.3994C16.2389 65.3994 17.9435 63.6948 17.9435 61.5921C17.9435 59.4894 16.2389 57.7848 14.1362 57.7848C12.0335 57.7848 10.3289 59.4894 10.3289 61.5921C10.3289 63.6948 12.0335 65.3994 14.1362 65.3994Z" fill="#FF6D55"/>
<path d="M43.6261 65.3994C45.7288 65.3994 47.4334 63.6948 47.4334 61.5921C47.4334 59.4894 45.7288 57.7848 43.6261 57.7848C41.5234 57.7848 39.8188 59.4894 39.8188 61.5921C39.8188 63.6948 41.5234 65.3994 43.6261 65.3994Z" fill="#FF6D55"/>
<path d="M51.9419 48.2681C48.4147 48.4666 45.6849 44.712 43.0424 44.0363C39.5592 43.1455 35.3437 44.7505 33.2148 43.1755C28.8396 39.9388 31.6895 38.3326 29.7044 34.1253L41.2173 25.7077C41.2173 25.7077 54.172 29.2897 54.172 43.1096V48.2759L51.9419 48.2681Z" fill="#AA6100"/>
<path d="M37.2665 37.2952C33.9138 34.5806 34.8023 33.0199 34.6612 30.5011L29.7043 34.1253C31.6892 38.3328 28.8393 39.939 33.2147 43.1755C35.3437 44.7505 39.559 43.1455 43.0423 44.0363C45.6847 44.712 48.4147 48.467 51.9418 48.2681L54.172 48.2757V43.1094C54.172 43.039 54.1695 42.9703 54.1689 42.9004C51.7165 41.7212 49.6826 39.2837 47.6212 38.6593C43.9784 37.5563 39.4457 39.0591 37.2665 37.2952Z" fill="#9A4C00"/>
<path d="M26.8013 20.6548C14.0316 20.6548 3.5838 31.1026 3.5838 43.8723V48.4942C9.30474 47.5235 15.246 49.4334 19.3511 47.5182C24.7624 44.9937 26.7978 38.9039 29.8875 35.851C36.4249 29.3913 38.9076 33.0463 41.2173 25.7072C37.25 22.5486 32.2363 20.6548 26.8013 20.6548Z" fill="#CC7400"/>
<path d="M31.3526 21.1069C29.8799 20.8109 28.358 20.655 26.8013 20.655C14.0317 20.655 3.5838 31.1028 3.5838 43.8725V48.4944C6.56663 47.9882 9.60889 48.2649 12.4202 48.3745C12.6917 36.0438 20.4764 25.4811 31.3526 21.1069Z" fill="#AA6100"/>
<path d="M23.9137 34.8826C23.3448 34.4437 23.2507 33.6207 23.6946 33.0558C24.2403 32.3615 24.7702 31.7622 25.3151 31.224C25.8263 30.7188 26.6499 30.7239 27.1549 31.2349C27.6599 31.7459 27.6549 32.5697 27.1439 33.0747C26.6773 33.5357 26.2181 34.0555 25.7404 34.6635C25.4841 34.9902 24.7634 35.5381 23.9137 34.8826Z" fill="#AA6100"/>
<path d="M15.9718 43.3525C15.7052 42.6851 15.9496 41.9272 16.6008 41.6233C18.4667 40.7528 19.9074 38.5777 21.4328 36.2749C21.8295 35.6759 22.6367 35.512 23.236 35.9086C23.835 36.3056 23.9989 37.1127 23.6023 37.7119C21.8687 40.329 20.2315 42.801 17.7012 43.9817C17.5229 44.0644 16.4801 44.625 15.9718 43.3525Z" fill="#AA6100"/>
</svg>
