<svg width="85" height="85" viewBox="0 0 85 85" fill="none" xmlns="http://www.w3.org/2000/svg">
<g clip-path="url(#clip0)">
<path d="M79.2353 7.10236C79.2353 7.10236 81.0213 27.6504 73.8741 49.5572C73.0419 52.1082 69.2904 51.5469 69.2541 48.8639C69.1214 39.0117 68.2839 24.5385 65.1445 9.60969C65.1635 9.56121 79.2353 7.10236 79.2353 7.10236Z" fill="#FFEB99"/>
<path d="M79.4332 13.0273C77.6684 14.1656 75.0484 16.0477 72.425 18.6397C70.5321 20.5101 68.925 22.452 67.6032 24.4583C67.0059 19.6685 66.2075 14.6656 65.1445 9.60971C65.1635 9.56124 79.2353 7.10236 79.2353 7.10236C79.2353 7.10236 79.4262 9.30175 79.4332 13.0273Z" fill="#FFE477"/>
<path d="M69.9195 0.372502C74.489 -1.17925 79.2238 2.27321 79.2351 7.09912C79.2351 7.09912 59.06 17.3028 57.9167 37.3097C57.8699 37.1612 52.0074 32.3878 48.3839 29.4481V23.866C48.3841 23.8662 53.7266 5.87094 69.9195 0.372502Z" fill="#FFF5CC"/>
<path d="M5.76473 7.10236C5.76473 7.10236 3.97874 27.6504 11.1259 49.5572C11.9581 52.1082 15.7096 51.5469 15.7459 48.8639C15.8786 39.0117 16.7161 24.5385 19.8555 9.60969C19.8365 9.56121 5.76473 7.10236 5.76473 7.10236Z" fill="#FFEB99"/>
<path d="M5.56683 13.0273C7.33158 14.1656 9.95164 16.0477 12.575 18.6397C14.4679 20.5101 16.075 22.452 17.3968 24.4583C17.9941 19.6685 18.7925 14.6656 19.8555 9.60971C19.8365 9.56124 5.76472 7.10236 5.76472 7.10236C5.76472 7.10236 5.57364 9.30175 5.56683 13.0273Z" fill="#FFE477"/>
<path d="M15.0805 0.372503C10.5109 -1.17925 5.77616 2.27322 5.76471 7.09896C5.76471 7.09896 25.9398 17.3026 27.0831 37.3095C27.1299 37.1611 32.9924 32.3876 36.6159 29.448V23.866C36.6159 23.8662 31.2733 5.87094 15.0805 0.372503Z" fill="#FFF5CC"/>
<path d="M7.43981 2.53174C6.40852 3.75245 5.76886 5.33408 5.76471 7.10182C5.76471 7.10182 25.9398 17.3055 27.0831 37.3123C27.1143 37.2131 29.7364 35.0537 32.5542 32.7546V30.2363C32.5542 30.2368 26.3103 9.21619 7.43981 2.53174Z" fill="#FFEB99"/>
<path d="M77.56 2.53174C78.5913 3.75245 79.2311 5.33408 79.2351 7.10182C79.2351 7.10182 59.0601 17.3055 57.9167 37.3123C57.8855 37.2131 55.2635 35.0537 52.4457 32.7546V30.2363C52.4458 30.2368 58.6897 9.21619 77.56 2.53174Z" fill="#FFEB99"/>
<path d="M24.7876 43.1154C24.7876 43.1154 16.0319 41.2223 12.2767 32.1702C11.6085 30.5593 12.5679 28.7288 14.2743 28.3693C18.1621 27.55 25.1039 27.0426 30.381 31.9286C30.2376 32.0721 24.7876 43.1154 24.7876 43.1154Z" fill="#957856"/>
<path d="M27.1094 38.4267C19.0938 32.2022 12.2775 32.1707 12.2775 32.1707C16.0328 41.2229 24.7885 43.1159 24.7885 43.1159C24.7885 43.1159 25.8865 40.8917 27.1094 38.4267Z" fill="#806749"/>
<path d="M60.2122 43.1154C60.2122 43.1154 68.9679 41.2223 72.7232 32.1702C73.3914 30.5593 72.432 28.7288 70.7255 28.3693C66.8378 27.55 59.896 27.0426 54.6188 31.9286C54.7624 32.0721 60.2122 43.1154 60.2122 43.1154Z" fill="#957856"/>
<path d="M57.8905 38.4267C65.9061 32.2022 72.7224 32.1707 72.7224 32.1707C68.9671 41.2229 60.2114 43.1159 60.2114 43.1159C60.2114 43.1159 59.1135 40.8917 57.8905 38.4267Z" fill="#806749"/>
<path d="M42.5 21.7662C31.4961 21.7662 22.493 30.7694 22.493 41.7732V62.0776C22.493 67.0428 24.3266 71.6004 27.3496 75.1075H57.6507C60.6736 71.6003 62.5074 67.0428 62.5074 62.0776V41.7734C62.507 30.7696 53.5038 21.7662 42.5 21.7662Z" fill="#B39A7C"/>
<path d="M32.9808 75.1079C34.2605 73.6564 35.0408 71.7555 35.0408 69.6802V42.5614C35.0408 38.0364 31.3384 34.3341 26.8132 34.3341C25.7122 34.3341 24.6606 34.5547 23.6984 34.9517C22.919 37.0833 22.4928 39.3811 22.4928 41.774V62.0781C22.4928 67.0432 24.3264 71.6008 27.3493 75.1079H32.9808Z" fill="#A78966"/>
<path d="M52.0191 75.1079C50.7395 73.6562 49.9592 71.7554 49.9592 69.6802V42.5614C49.9592 38.0364 53.6615 34.3341 58.187 34.3341C59.288 34.3341 60.3395 34.5547 61.3017 34.9517C62.0812 37.0833 62.5074 39.3811 62.5074 41.774V62.0781C62.5074 67.0432 60.6737 71.6008 57.6509 75.1079H52.0191Z" fill="#A78966"/>
<path d="M38.1813 27.5534C38.0484 26.8472 38.4839 26.1604 39.1871 26.013C40.2704 25.7855 41.385 25.6702 42.4998 25.6702C43.2185 25.6702 43.8009 26.2527 43.8009 26.9712C43.8009 27.6897 43.2185 28.2723 42.4998 28.2723C41.5642 28.2723 40.6297 28.3689 39.7217 28.5593C39.6317 28.5784 38.4235 28.8399 38.1813 27.5534Z" fill="#A78966"/>
<path d="M52.677 32.9359C52.4716 32.7007 52.2541 32.4678 52.0302 32.2439C50.4077 30.6215 48.4092 29.432 46.2508 28.804C45.5607 28.6033 45.1643 27.8813 45.3651 27.1916C45.5657 26.5015 46.2887 26.1054 46.9777 26.3059C49.5554 27.0558 51.939 28.4731 53.8703 30.4043C54.1358 30.6698 54.3939 30.9457 54.6376 31.2249C55.1101 31.7661 55.0817 32.6212 54.5131 33.0604C53.6888 33.6969 52.9341 33.2306 52.677 32.9359Z" fill="#A78966"/>
<path d="M28.7091 47.9971C30.3725 47.9971 31.7209 46.6487 31.7209 44.9853C31.7209 43.3219 30.3725 41.9734 28.7091 41.9734C27.0457 41.9734 25.6972 43.3219 25.6972 44.9853C25.6972 46.6487 27.0457 47.9971 28.7091 47.9971Z" fill="#3E3D42"/>
<path d="M56.2907 47.9971C57.9541 47.9971 59.3026 46.6487 59.3026 44.9853C59.3026 43.3219 57.9541 41.9734 56.2907 41.9734C54.6273 41.9734 53.2789 43.3219 53.2789 44.9853C53.2789 46.6487 54.6273 47.9971 56.2907 47.9971Z" fill="#3E3D42"/>
<path d="M42.5 66.357C37.6789 66.357 33.7343 70.3016 33.7343 75.1231V76.2362C33.7343 81.0577 37.6789 85.0023 42.5 85.0023C47.3211 85.0023 51.2657 81.0577 51.2657 76.2364V75.1232C51.2657 70.3018 47.3211 66.357 42.5 66.357Z" fill="#957856"/>
<path d="M41.1935 76.2356V75.1224C41.1935 71.6331 43.2604 68.6043 46.2296 67.1965C45.0962 66.6591 43.8318 66.357 42.5 66.357C37.6789 66.357 33.7343 70.3015 33.7343 75.1228V76.2359C33.7343 81.0566 37.6789 85.0012 42.5 85.0012C43.832 85.0012 45.0962 84.699 46.2296 84.1616C43.2604 82.7535 41.1935 79.7247 41.1935 76.2356Z" fill="#806749"/>
<path d="M42.5 70.6578C40.039 70.6578 38.037 72.66 38.037 75.1208V76.2341C38.037 78.6951 40.0391 80.6971 42.5 80.6971C44.9608 80.6971 46.963 78.695 46.963 76.2341V75.1208C46.963 72.66 44.961 70.6578 42.5 70.6578Z" fill="#2D2D30"/>
<path d="M41.1935 75.1216C41.1935 73.4951 41.6439 71.9694 42.4237 70.6604C39.9978 70.7014 38.0369 72.6861 38.0369 75.1216V76.2349C38.0369 78.6702 39.998 80.655 42.4237 80.696C41.6436 79.3868 41.1935 77.8612 41.1935 76.2349V75.1216Z" fill="#1D1D1F"/>
<path d="M57.4976 66.3664C54.6589 62.8822 46.3211 58.2172 42.5 60.5439C38.6789 58.2172 30.3411 62.8822 27.5023 66.3664C24.5618 69.9754 25.1038 75.2849 28.7129 78.2254C32.3219 81.1659 37.6314 80.6238 40.5719 77.0148C41.2379 76.1972 41.9058 75.0683 42.4998 73.7795C43.0938 75.0684 43.7617 76.1975 44.4277 77.0148C47.3682 80.6238 52.6775 81.1659 56.2867 78.2254C59.8959 75.2849 60.4379 69.9756 57.4976 66.3664Z" fill="#FFDAAA"/>
<path d="M34.7635 72.1166C35.0825 68.7882 36.9095 63.9082 39.4891 59.9342C35.3304 60.1808 29.7272 63.6366 27.5023 66.3675C24.5618 69.9765 25.1038 75.286 28.7129 78.2265C30.9956 80.0864 33.9583 80.5514 36.5717 79.7298C35.1919 77.539 34.4975 74.8932 34.7635 72.1166Z" fill="#FFC477"/>
<path d="M41.1935 60.0406V76.1642C41.6475 75.4781 42.0913 74.6701 42.5 73.7834C42.9054 74.6631 43.3455 75.4651 43.7954 76.1476V60.0429C43.3241 60.1435 42.9011 60.3049 42.5 60.5479C42.1084 60.3094 41.6691 60.1409 41.1935 60.0406Z" fill="#6A563D"/>
<path d="M47.0177 58.4106C47.0177 60.9056 44.9949 63.9322 42.5 63.9322C40.005 63.9322 37.9824 60.9058 37.9824 58.4106C37.9824 55.9153 40.0052 55.9006 42.5 55.9006C44.9951 55.9006 47.0177 55.9155 47.0177 58.4106Z" fill="#3E3D42"/>
<path d="M40.1869 59.0337C40.04 58.7233 39.7712 58.4801 39.448 58.3643C39.1269 58.2495 38.7633 58.2679 38.4546 58.4141C38.2763 58.4985 38.1205 58.6247 37.9977 58.7774C38.1071 60.2304 38.8542 61.8005 39.9495 62.822C40.1328 62.8185 40.3154 62.7782 40.4819 62.6993C40.7909 62.5532 41.0356 62.2838 41.1498 61.9612C41.2655 61.6378 41.2476 61.2759 41.1017 60.967L40.1869 59.0337Z" fill="#2D2D30"/>
<path d="M47.0025 58.8029C46.88 58.6516 46.7253 58.5263 46.5482 58.4426C46.2392 58.2965 45.8758 58.2779 45.5547 58.3928C45.2313 58.5085 44.9627 58.7517 44.8158 59.0622L43.9012 60.9953C43.7549 61.3042 43.7373 61.6663 43.8531 61.9896C43.9673 62.3123 44.2121 62.5816 44.5209 62.7277C44.6868 62.806 44.8682 62.8464 45.0507 62.8502C46.1469 61.828 46.894 60.2565 47.0025 58.8029Z" fill="#2D2D30"/>
</g>
<defs>
<clipPath id="clip0">
<rect width="85" height="85" fill="white"/>
</clipPath>
</defs>
</svg>
