<svg width="85" height="85" viewBox="0 0 85 85" fill="none" xmlns="http://www.w3.org/2000/svg">
<g clip-path="url(#clip0)">
<path d="M71.2076 8.32918C66.7409 10.252 65.1456 16.5162 67.6443 22.3207C70.143 28.1251 75.7896 31.2718 80.2562 29.3489C84.7229 27.4261 86.3183 21.1619 83.8195 15.3574C81.3208 9.553 75.6743 6.40634 71.2076 8.32918Z" fill="#AA6100"/>
<path d="M83.8182 15.3594C83.1078 13.7095 82.1426 12.2752 81.0231 11.1101C81.023 11.1104 81.0226 11.1106 81.0223 11.1109C79.7921 15.6391 78.777 24.2274 77.4754 29.9122C78.426 29.9129 79.3642 29.7343 80.2553 29.3508C84.7219 27.428 86.3172 21.1637 83.8182 15.3594Z" fill="#9A4C00"/>
<path d="M52.3058 6.16775C62.9073 1.60368 75.2015 6.49779 79.7656 17.0993C84.3297 27.7008 79.4355 39.9951 68.834 44.5591C58.2325 49.1232 33.952 49.3892 29.3878 38.7876C24.8235 28.1861 41.7042 10.732 52.3058 6.16775Z" fill="#CC7400"/>
<path d="M68.9025 29.5232C59.83 35.2111 40.9434 39.1063 28.6654 35.8419C28.7539 36.8671 28.9861 37.8539 29.3877 38.7864C33.9518 49.3879 58.2325 49.1219 68.834 44.5579C79.4355 39.9938 84.3298 27.6996 79.7655 17.098C79.7201 16.9921 75.9671 25.0941 68.9025 29.5232Z" fill="#AA6100"/>
<path d="M53.1685 11.4613C52.8843 10.8014 53.1889 10.0361 53.849 9.75201C54.738 9.36919 55.6587 9.06107 56.5857 8.83596C57.2842 8.66613 57.9876 9.09494 58.1571 9.79318C58.3266 10.4914 57.8981 11.195 57.1998 11.3645C56.4144 11.5552 55.6513 11.8628 54.8778 12.1419C54.0354 12.4459 53.3805 11.9535 53.1685 11.4613Z" fill="#AA6100"/>
<path d="M70.5046 14.9418C67.7426 12.4538 64.2832 10.9625 60.5597 10.9625C59.8412 10.9625 59.2586 10.38 59.2586 9.66148C59.2586 8.94298 59.8412 8.36044 60.5597 8.36044C64.9554 8.36044 69.125 10.0292 72.3009 13.0591C72.8208 13.555 72.8401 14.3787 72.344 14.8985C72.0884 15.1665 71.2955 15.6542 70.5046 14.9418Z" fill="#AA6100"/>
<path d="M27.7001 23.5602C22.6281 25.7437 21.1113 33.5415 24.3122 40.9772C27.5131 48.4128 34.2196 52.6706 39.2916 50.4871C44.3636 48.3037 45.8804 40.5059 42.6795 33.0702C39.4786 25.6346 32.7721 21.3768 27.7001 23.5602Z" fill="#9A4C00"/>
<path d="M37.046 45.2715C33.5019 47.3563 28.6867 45.3635 26.4828 40.245C24.2792 35.1265 26.1966 30.6801 29.9411 28.7688C31.8758 27.7812 38.9183 44.1703 37.046 45.2715Z" fill="#663A00"/>
<path d="M37.466 35.3082C39.6697 40.4269 38.4467 44.6669 37.0462 45.2697C35.6458 45.8727 31.7252 43.847 29.5214 38.7282C27.3177 33.6095 28.5407 29.3695 29.9412 28.7667C31.3417 28.1637 35.2623 30.1893 37.466 35.3082Z" fill="#2D2D30"/>
<path d="M32.3835 37.4048C30.8452 33.8317 30.9775 30.6885 31.6735 28.91C30.9551 28.6381 30.344 28.5929 29.9414 28.7662C28.5411 29.3692 27.3179 33.6091 29.5216 38.7278C31.7253 43.8465 35.6459 45.8721 37.0464 45.2693C37.4692 45.0872 37.8753 44.5717 38.1761 43.8024C36.3952 43.1279 33.9537 41.0523 32.3835 37.4048Z" fill="#1D1D1F"/>
<path d="M35.6231 71.6499V72.2765C35.6231 74.1846 34.0619 75.7458 32.1537 75.7458H3.46937C1.5612 75.746 0 74.1846 0 72.2766V71.6499C0 69.7417 1.5612 68.1805 3.46937 68.1805H32.1537C34.0619 68.1805 35.6231 69.7419 35.6231 71.6499Z" fill="#57A4FF"/>
<path d="M32.1538 68.1805H3.46941C3.3092 68.1805 3.31352 73.2452 5.50773 75.7458H32.1538C34.0619 75.7458 35.6231 74.1846 35.6231 72.2765V71.6499C35.6231 69.7419 34.0619 68.1805 32.1538 68.1805Z" fill="#2488FF"/>
<path d="M37.6254 35.6985C34.7796 36.7044 32.4026 38.7067 30.9119 41.2846C29.8433 43.1327 29.2282 45.2748 29.2282 47.5588L29.1646 75.7494L32.4452 75.7408C36.6537 75.7408 36.7935 70.8835 36.7935 69.2121V47.559C36.7935 46.1048 37.7584 44.623 37.8213 44.5227C38.7626 43.0278 39.2092 39.652 37.6254 35.6985Z" fill="#57A4FF"/>
<path d="M10.2463 55.2285C7.84951 55.2285 6.46362 53.6673 6.46362 51.7592V49.4272C6.46362 47.519 7.93601 45.9578 10.1913 45.9578C12.4466 45.9578 14.0289 47.519 14.0289 49.4272V51.7592C14.0289 53.6673 12.643 55.2285 10.2463 55.2285Z" fill="#9BC9FF"/>
<path d="M37.6254 35.6985C36.5598 36.0754 35.5597 36.5917 34.6475 37.2258V39.8218C34.6475 39.8218 37.3065 40.8771 37.8213 44.5229C38.7626 43.028 39.2092 39.6522 37.6254 35.6985Z" fill="#2488FF"/>
<path d="M30.9123 41.2848C29.8436 43.133 29.2286 45.2749 29.2286 47.559L29.165 75.7499L32.4456 75.7413C33.9502 74.2251 34.0468 69.7131 34.0468 69.7131V46.1689C34.0468 45.5366 34.1657 44.9321 34.3802 44.3746C35.0587 42.6117 36.7052 41.3254 38.6657 41.1724C38.7178 39.62 38.4419 37.7365 37.6256 35.6985C34.7798 36.7048 32.4028 38.7069 30.9123 41.2848Z" fill="#2488FF"/>
<path d="M37.466 35.3102C36.8851 33.961 36.1846 32.8288 35.4426 31.9009C32.7776 32.1518 30.3536 33.2382 28.4323 34.8942C25.7539 37.2023 24.0529 40.6155 24.0529 44.4208V67.9646C24.0529 70.7283 21.8045 72.9766 19.0409 72.9766C16.2772 72.9766 14.0289 70.7283 14.0289 67.9646V63.2877C14.0289 61.1985 12.3354 59.505 10.2463 59.505C8.15714 59.505 6.46362 61.1985 6.46362 63.2877V67.9646C6.46362 74.8997 12.1056 80.5419 19.0409 80.5419C31.6182 80.5419 31.6182 67.9646 31.6182 67.9646V44.4206C31.6182 43.7882 31.737 43.1838 31.9515 42.6263C32.6748 40.7465 34.4987 39.4086 36.6301 39.4086L38.5888 39.4015C38.4419 38.1509 38.0929 36.7665 37.466 35.3102Z" fill="#9BC9FF"/>
<path d="M38.589 39.3987C38.4419 38.1483 38.0931 36.7637 37.466 35.3076C36.8852 33.9584 36.1846 32.8262 35.4427 31.8983C33.8277 32.0502 32.3022 32.5109 30.9222 33.2173C32.0106 34.2919 33.0816 35.7788 33.9097 37.7027C34.2221 38.4285 34.4635 39.1356 34.6474 39.8182C35.2559 39.5548 35.9256 39.406 36.63 39.406L38.589 39.3987Z" fill="#57A4FF"/>
</g>
<defs>
<clipPath id="clip0">
<rect width="85" height="85" fill="white"/>
</clipPath>
</defs>
</svg>
