<svg width="85" height="85" viewBox="0 0 85 85" fill="none" xmlns="http://www.w3.org/2000/svg">
<g clip-path="url(#clip0)">
<path d="M8.46761 24.4406C8.46761 24.4406 6.89129 43.17 10.2511 57.4699C10.8217 59.8985 12.9914 61.6128 15.4861 61.6128H19.3043C21.418 61.6128 22.9192 59.5587 22.2796 57.5442C20.5489 52.0926 18.181 41.1278 19.5697 24.4406H8.46761V24.4406Z" fill="#A78966"/>
<path d="M8.18933 29.6495C9.00579 29.7631 11.9426 30.2528 15.0834 31.7555C16.6551 32.5074 18.0123 33.3876 19.1522 34.3924C19.1477 31.3366 19.2717 28.0213 19.5695 24.4406H8.46757C8.46757 24.4408 8.29874 26.4481 8.18933 29.6495Z" fill="#957856"/>
<path d="M32.7533 26.2435C32.7533 26.2435 28.8558 18.1612 17.5197 16.5348C12.7355 15.8483 8.46759 19.6089 8.46759 24.4421C8.46759 24.4421 25.4614 26.0935 28.3803 40.447L32.7533 26.2435Z" fill="#C0AB91"/>
<path d="M22.3456 57.7847C21.6153 60.4604 17.7892 57.0241 17.7892 57.0241C17.7892 57.0241 7.65842 49.1112 4.5883 30.1587C4.28516 28.2864 1.61629 28.1914 1.18117 30.0377C-0.780801 38.3649 -1.5277 51.3357 9.08748 59.9443C10.4183 61.0234 12.0796 61.6143 13.793 61.6143H19.3054C21.3353 61.6141 22.7992 59.7195 22.3456 57.7847Z" fill="#C0AB91"/>
<path d="M2.15734 28.8478C1.70129 29.0432 1.32278 29.4368 1.18117 30.0377C-0.780801 38.3649 -1.5277 51.3356 9.08748 59.9443C10.4183 61.0234 12.0796 61.6142 13.793 61.6142H17.0441C4.20962 53.4602 1.89736 39.178 2.15734 28.8478Z" fill="#B39A7C"/>
<path d="M23.3396 18.119C20.8743 20.7052 18.9287 23.7953 17.6695 27.227C22.1849 29.4667 26.9566 33.4448 28.3801 40.4455L32.7531 26.2418C32.7533 26.2422 30.2292 21.0112 23.3396 18.119Z" fill="#B39A7C"/>
<path d="M26.1877 28.7495C26.1877 28.7495 20.0331 27.5517 13.1658 32.4281C11.6775 33.4851 11.4074 35.5862 12.5803 36.9849C14.3862 39.1384 17.7087 41.9056 23.0844 42.5167C22.9355 42.4114 26.1877 28.7495 26.1877 28.7495Z" fill="#FFB655"/>
<path d="M24.034 37.9651C18.0246 35.6665 11.9468 35.5693 11.9062 35.5688C12.0029 36.0732 12.2237 36.5618 12.5793 36.9856C14.3852 39.1392 17.7077 41.9063 23.0834 42.5174C23.0263 42.4772 23.4676 40.4509 24.034 37.9651Z" fill="#CC7400"/>
<path d="M76.5324 24.4406C76.5324 24.4406 78.1087 43.17 74.7489 57.4699C74.1783 59.8985 72.0086 61.6128 69.5139 61.6128H65.6957C63.582 61.6128 62.0808 59.5587 62.7204 57.5442C64.4511 52.0926 66.819 41.1278 65.4303 24.4406H76.5324V24.4406Z" fill="#A78966"/>
<path d="M76.8106 29.6495C75.9942 29.7631 73.0573 30.2528 69.9165 31.7555C68.3448 32.5074 66.9876 33.3876 65.8478 34.3924C65.8523 31.3366 65.7283 28.0213 65.4304 24.4406H76.5324C76.5324 24.4408 76.701 26.4481 76.8106 29.6495Z" fill="#957856"/>
<path d="M52.2467 26.2435C52.2467 26.2435 56.1442 18.1612 67.4803 16.5348C72.2645 15.8483 76.5324 19.6089 76.5324 24.4421C76.5324 24.4421 59.5386 26.0935 56.6197 40.447L52.2467 26.2435Z" fill="#C0AB91"/>
<path d="M62.6544 57.7843C63.3847 60.46 67.2108 57.0237 67.2108 57.0237C67.2108 57.0237 77.3416 49.111 80.4117 30.1587C80.7149 28.2864 83.3837 28.1914 83.8188 30.0376C85.7808 38.3647 86.5277 51.3352 75.9125 59.9439C74.5817 61.0229 72.9204 61.6138 71.207 61.6138H65.6946C63.6646 61.6136 62.2007 59.7191 62.6544 57.7843Z" fill="#C0AB91"/>
<path d="M82.8426 28.8478C83.2987 29.0432 83.6772 29.4368 83.8188 30.0377C85.7808 38.3649 86.5277 51.3356 75.9125 59.9445C74.5817 61.0236 72.9204 61.6144 71.207 61.6144H67.9559C80.7904 53.4602 83.1025 39.178 82.8426 28.8478Z" fill="#B39A7C"/>
<path d="M61.6604 18.119C64.1258 20.7052 66.0713 23.7953 67.3305 27.227C62.8151 29.4667 58.0435 33.4448 56.6199 40.4455L52.2467 26.2418C52.2467 26.2422 54.7706 21.0112 61.6604 18.119Z" fill="#B39A7C"/>
<path d="M58.8121 28.7495C58.8121 28.7495 64.9668 27.5517 71.834 32.4281C73.3223 33.4851 73.5924 35.5862 72.4195 36.9849C70.6136 39.1384 67.2911 41.9056 61.9154 42.5167C62.0645 42.4114 58.8121 28.7495 58.8121 28.7495Z" fill="#FFB655"/>
<path d="M60.9659 37.9651C66.9754 35.6665 73.0532 35.5693 73.0937 35.5688C72.9971 36.0732 72.7763 36.5618 72.4207 36.9856C70.6148 39.1392 67.2923 41.9063 61.9165 42.5174C61.9737 42.4772 61.5322 40.4509 60.9659 37.9651Z" fill="#CC7400"/>
<path d="M42.4999 69.8711C47.0605 69.8711 50.7575 66.174 50.7575 61.6135C50.7575 57.0529 47.0605 53.3559 42.4999 53.3559C37.9394 53.3559 34.2423 57.0529 34.2423 61.6135C34.2423 66.174 37.9394 69.8711 42.4999 69.8711Z" fill="#FFC477"/>
<path d="M39.6116 61.6135C39.6116 57.993 41.9424 54.9191 45.1846 53.8046C44.3425 53.5152 43.4402 53.3559 42.4999 53.3559C37.9395 53.3559 34.2423 57.053 34.2423 61.6135C34.2423 66.1739 37.9395 69.8711 42.4999 69.8711C43.4401 69.8711 44.3425 69.7119 45.1846 69.4223C41.9424 68.3079 39.6116 65.2338 39.6116 61.6135Z" fill="#FFB655"/>
<path d="M63.748 36.3751C63.748 24.6407 54.2354 15.1282 42.5009 15.1282C31.1086 15.1282 21.8112 24.0942 21.2787 35.3544C21.2787 35.3544 20.1293 50.7644 32.9104 62.9201C35.5953 65.4737 39.8325 65.3706 42.4066 62.7278C44.9807 65.3706 49.277 65.5343 51.9028 62.9201C63.748 51.1273 63.748 38.0536 63.748 36.3751Z" fill="#FFDAAA"/>
<path d="M38.6515 43.145C38.6515 34.0011 32.063 26.5534 23.8237 26.2434C22.3387 28.9749 21.4342 32.0676 21.2785 35.3569C21.2785 35.3569 20.3701 47.5442 29.1581 58.7922C34.7315 56.2533 38.6515 50.1965 38.6515 43.145Z" fill="#FFC477"/>
<path d="M55.643 58.6861C63.7462 48.1844 63.748 37.8583 63.748 36.3793C63.748 32.71 62.8178 29.258 61.1804 26.246C52.9387 26.553 46.3483 34.0011 46.3483 43.1467C46.3483 50.1104 50.1804 56.0929 55.643 58.6861Z" fill="#FFC477"/>
<path d="M31.4992 24.6149C31.0525 24.0519 31.1468 23.2338 31.7094 22.7871C33.7217 21.19 36.1063 20.0438 38.6054 19.4723C39.3059 19.3125 40.0035 19.7502 40.1636 20.4506C40.3236 21.151 39.8857 21.8488 39.1852 22.0088C37.0626 22.4942 35.1237 23.5853 33.3271 24.8251C32.6122 25.3185 31.7561 24.9385 31.4992 24.6149Z" fill="#FFC477"/>
<path d="M44.1743 21.7286C43.6975 21.7286 43.2176 21.6437 42.7396 21.6361C42.0211 21.6247 41.4482 21.033 41.4596 20.3146C41.4711 19.5963 42.0601 19.0281 42.7813 19.0348C43.3431 19.0438 43.9105 19.0803 44.4678 19.1433C45.1819 19.2242 45.695 19.8686 45.614 20.5825C45.5385 21.2465 45.2177 21.7286 44.1743 21.7286Z" fill="#FFC477"/>
<path d="M41.1054 63.7696C41.5707 63.4828 42.0085 63.1355 42.4065 62.727C42.8034 63.1344 43.2412 63.4825 43.7075 63.7709V55.208H41.1054V63.7696Z" fill="#3E3D42"/>
<path d="M28.7891 43.7055C30.275 43.7055 31.4797 42.5008 31.4797 41.0146C31.4797 39.5284 30.275 38.3237 28.7891 38.3237C27.3031 38.3237 26.0984 39.5284 26.0984 41.0146C26.0984 42.5008 27.3031 43.7055 28.7891 43.7055Z" fill="#3E3D42"/>
<path d="M56.0964 43.7055C57.5824 43.7055 58.787 42.5008 58.787 41.0146C58.787 39.5284 57.5824 38.3237 56.0964 38.3237C54.6104 38.3237 53.4058 39.5284 53.4058 41.0146C53.4058 42.5008 54.6104 43.7055 56.0964 43.7055Z" fill="#3E3D42"/>
<path d="M47.0177 54.5479C47.0177 57.0427 44.995 60.0691 42.5001 60.0691C40.005 60.0691 37.9825 57.0429 37.9825 54.5479C37.9825 52.0531 40.0052 52.0381 42.5001 52.0381C44.995 52.0383 47.0177 52.0531 47.0177 54.5479Z" fill="#3E3D42"/>
<path d="M40.187 55.2231C40.0401 54.9127 39.7713 54.6695 39.4481 54.5538C39.127 54.4389 38.7634 54.4573 38.4546 54.6036C38.2763 54.6879 38.1206 54.8141 37.9977 54.9668C38.1071 56.4198 38.8542 57.99 39.9496 59.0114C40.1329 59.008 40.3155 58.9676 40.482 58.8888C40.7909 58.7427 41.0357 58.4732 41.1499 58.1507C41.2656 57.8273 41.2477 57.4653 41.1017 57.1564L40.187 55.2231Z" fill="#2D2D30"/>
<path d="M47.0035 54.8939C46.8828 54.7487 46.7326 54.6278 46.5608 54.5464C46.2518 54.4004 45.8884 54.3818 45.5673 54.4966C45.2439 54.6124 44.9753 54.8556 44.8284 55.166L43.9138 57.0991C43.7676 57.408 43.75 57.7701 43.8657 58.0934C43.9799 58.4159 44.2248 58.6854 44.5336 58.8315C44.6999 58.9102 44.8696 58.9487 45.0525 58.9522C46.1507 57.9273 46.8983 56.3505 47.0035 54.8939Z" fill="#2D2D30"/>
</g>
<defs>
<clipPath id="clip0">
<rect width="85" height="85" fill="white"/>
</clipPath>
</defs>
</svg>
