<svg width="85" height="85" viewBox="0 0 85 85" fill="none" xmlns="http://www.w3.org/2000/svg">
<g clip-path="url(#clip0)">
<path d="M71.9406 20.9936L81.9682 50.6909L84.4331 49.8586L74.4055 20.1613L71.9406 20.9936Z" fill="#3E3D42"/>
<path d="M79.6766 35.7744L74.4042 20.1593L71.9389 20.9919L79.6766 43.9082V35.7744Z" fill="#2D2D30"/>
<path d="M61.913 49.8567L64.3779 50.689L74.4055 20.9917L71.9406 20.1594L61.913 49.8567Z" fill="#3E3D42"/>
<path d="M66.6663 43.9083L74.4041 20.9919L71.9387 20.1593L66.6663 35.7744V43.9083Z" fill="#2D2D30"/>
<path d="M74.4721 20.3029H71.8702V51.6765H74.4721V20.3029Z" fill="#57565C"/>
<path d="M0.568165 49.5851L3.03326 50.4175L13.0609 20.7202L10.5958 19.8878L0.568165 49.5851Z" fill="#3E3D42"/>
<path d="M10.596 20.721L20.6237 50.4182L23.0888 49.5859L13.0611 19.8886L10.596 20.721Z" fill="#3E3D42"/>
<path d="M18.3336 35.5018L13.0613 19.8868L10.5959 20.7193L18.3336 43.6357V35.5018Z" fill="#2D2D30"/>
<path d="M5.32343 43.6359L13.0612 20.7193L10.5959 19.8868L5.32343 35.5018V43.6359Z" fill="#2D2D30"/>
<path d="M13.1295 20.3029H10.5275V51.6765H13.1295V20.3029Z" fill="#57565C"/>
<path d="M61.5466 50.91L62.8663 52.9958C63.65 54.2347 65.0135 54.9854 66.4793 54.9854H79.8636C81.3294 54.9854 82.693 54.2345 83.4766 52.9958L84.7963 50.91C85.3445 50.0436 84.7219 48.913 83.6966 48.913H62.6461C61.621 48.9132 60.9984 50.0436 61.5466 50.91Z" fill="#FF5023"/>
<path d="M0.203713 50.6376L1.52337 52.7234C2.30713 53.9622 3.67062 54.7129 5.13637 54.7129H18.5207C19.9865 54.7129 21.3501 53.9621 22.1337 52.7234L23.4534 50.6376C24.0016 49.7712 23.379 48.6406 22.3537 48.6406H1.3034C0.278088 48.6406 -0.344471 49.7712 0.203713 50.6376Z" fill="#FF5023"/>
<path d="M69.9142 53.03L67.7552 49.6176C67.6117 49.3908 67.5178 49.1529 67.4671 48.9133H62.6462C61.6211 48.9133 60.9985 50.0439 61.5465 50.9103L62.8662 52.9962C63.6499 54.235 65.0134 54.9857 66.4792 54.9857H71.7669C71.0393 54.4671 70.4064 53.8082 69.9142 53.03Z" fill="#FF3501"/>
<path d="M8.57126 52.7576L6.41223 49.3452C6.26879 49.1184 6.17482 48.8805 6.12419 48.6409H1.30343C0.278281 48.6409 -0.344277 49.7715 0.20374 50.6379L1.5234 52.7237C2.30716 53.9625 3.67064 54.7133 5.1364 54.7133H10.4242C9.69651 54.1946 9.0635 53.5356 8.57126 52.7576Z" fill="#FF3501"/>
<path d="M45.7674 23.116C48.1265 23.6657 50.9444 24.0862 55.2549 24.0862C65.2595 24.0862 67.2239 21.8214 74.0712 20.9321C75.2468 20.7794 75.2662 19.0875 74.0941 18.9094C71.7093 18.5474 68.7308 18.3957 65.3616 18.8644C65.3616 18.8644 52.3413 20.0744 45.7676 16.5197C45.7734 16.5201 45.7674 23.116 45.7674 23.116Z" fill="#FFE477"/>
<path d="M39.2328 23.116C36.8737 23.6657 34.0558 24.0862 29.7454 24.0862C19.7408 24.0862 17.7763 21.8214 10.929 20.9321C9.75344 20.7794 9.73402 19.0875 10.9061 18.9094C13.2909 18.5474 16.2694 18.3957 19.6387 18.8644C19.6387 18.8644 32.6589 20.0744 39.2327 16.5197C39.2267 16.5201 39.2328 23.116 39.2328 23.116Z" fill="#FFE477"/>
<path d="M29.7452 21.5417C20.7161 21.5417 18.2353 19.6973 12.8041 18.6836C12.1362 18.7413 11.5026 18.8187 10.9059 18.9092C9.73383 19.087 9.75309 20.7792 10.9288 20.9319C17.7761 21.8213 19.7406 24.086 29.7452 24.086C34.0558 24.086 36.8736 23.6655 39.2327 23.1158C39.2327 23.1158 39.2317 21.9341 39.2308 20.5718C36.8722 21.1213 34.0546 21.5417 29.7452 21.5417Z" fill="#FFDA44"/>
<path d="M55.255 21.5417C64.2841 21.5417 66.765 19.6973 72.196 18.6836C72.8639 18.7413 73.4976 18.8187 74.0943 18.9092C75.2663 19.087 75.2471 20.7792 74.0714 20.9319C67.224 21.8213 65.2596 24.086 55.255 24.086C50.9444 24.086 48.1266 23.6655 45.7675 23.1158C45.7675 23.1158 45.7685 21.9341 45.7693 20.5718C48.1279 21.1213 50.9454 21.5417 55.255 21.5417Z" fill="#FFDA44"/>
<path d="M50.4002 68.3624H45.5172V17.7592H39.4828V68.3621H34.5998C32.9405 68.3621 31.5826 69.7198 31.5826 71.3792C31.5826 73.0387 32.9403 74.3964 34.5998 74.3964H50.4C52.0593 74.3964 53.4172 73.0387 53.4172 71.3792C53.4174 69.7199 52.0595 68.3624 50.4002 68.3624Z" fill="#FFE477"/>
<path d="M42.5 17.7592H39.4828V68.3621H34.6812C32.9992 68.3621 31.5602 69.7382 31.583 71.4199C31.605 73.0608 32.9541 74.3963 34.5998 74.3963H34.6089C34.6053 74.3357 34.5998 74.2759 34.5998 74.2145C34.5998 72.555 35.9575 71.1973 37.617 71.1973H40.4183C41.568 71.1973 42.5 70.2653 42.5 69.1156V17.7592V17.7592Z" fill="#FFDA44"/>
<path d="M39.4828 17.7592L41.5937 11.2617C41.879 10.3839 43.1207 10.3839 43.406 11.2617L45.5168 17.7592H39.4828V17.7592Z" fill="#FFE477"/>
<path d="M36.8857 18.1296L37.934 23.4675C38.0803 24.2122 38.7332 24.7494 39.4921 24.7494H45.5073C46.2662 24.7494 46.9191 24.2124 47.0654 23.4675L48.1138 18.1296C48.3451 16.9522 47.4439 15.8568 46.244 15.8568H38.7552C37.5559 15.8568 36.6544 16.9522 36.8857 18.1296Z" fill="#FFD422"/>
<path d="M41.3478 15.8568H38.7555C37.5555 15.8568 36.6544 16.9524 36.8857 18.1296L37.9341 23.4675C38.0803 24.2122 38.7333 24.7494 39.4921 24.7494H43.1113C43.084 24.6616 43.0596 24.5723 43.0415 24.4803L41.3478 15.8568Z" fill="#EEBF00"/>
<path d="M45.354 52.6444H39.6462C38.6043 52.6444 37.6834 53.3214 37.3728 54.3158L36.2845 57.7977C35.8328 59.2432 36.0953 60.8175 36.9916 62.0382L38.2717 63.7817C38.7504 64.4336 39.511 64.8186 40.3197 64.8186H44.6808C45.4896 64.8186 46.2501 64.4335 46.7287 63.7817L48.0089 62.0382C48.9052 60.8175 49.1677 59.2433 48.7159 57.7977L47.6277 54.3158C47.3168 53.3216 46.3959 52.6444 45.354 52.6444Z" fill="#FFD422"/>
<path d="M39.7338 57.7193L40.4885 52.6444H39.646C38.6041 52.6444 37.6832 53.3214 37.3726 54.3158L36.2843 57.7977C35.8326 59.2432 36.0951 60.8175 36.9914 62.0382L38.2716 63.7817C38.7502 64.4336 39.5107 64.8186 40.3195 64.8186H41.2826L40.0212 61.025C39.6672 59.961 39.569 58.8286 39.7338 57.7193Z" fill="#EEBF00"/>
<path d="M45.2661 57.7193L44.5114 52.6444H45.3539C46.3958 52.6444 47.3167 53.3214 47.6273 54.3158L48.7156 57.7977C49.1673 59.2432 48.9048 60.8175 48.0085 62.0382L46.7284 63.7817C46.2497 64.4336 45.4892 64.8186 44.6804 64.8186H43.7173L44.9789 61.025C45.3327 59.961 45.4311 58.8286 45.2661 57.7193Z" fill="#EEBF00"/>
<path d="M36.9914 62.0382L38.2716 63.7817C38.7502 64.4336 39.5107 64.8186 40.3195 64.8186H44.6806C45.4894 64.8186 46.2499 64.4335 46.7286 63.7817L48.0087 62.0382C48.7146 61.0766 49.0254 59.8961 48.9057 58.7317H36.0944C35.9747 59.8961 36.2857 61.0768 36.9914 62.0382Z" fill="#EEBF00"/>
<path d="M36.0943 58.7317C35.9746 59.8961 36.2854 61.0768 36.9913 62.0382L38.2714 63.7817C38.75 64.4336 39.5105 64.8186 40.3194 64.8186H41.2824L40.0209 61.025C39.7742 60.2834 39.6546 59.5085 39.6588 58.7313H36.0939V58.7317H36.0943Z" fill="#DDB200"/>
<path d="M48.9055 58.7317C49.0252 59.8961 48.7144 61.0768 48.0085 62.0382L46.7284 63.7817C46.2497 64.4336 45.4892 64.8186 44.6804 64.8186H43.7173L44.9789 61.025C45.2256 60.2834 45.3451 59.5085 45.341 58.7313H48.9058V58.7317H48.9055Z" fill="#DDB200"/>
</g>
<defs>
<clipPath id="clip0">
<rect width="85" height="85" fill="white"/>
</clipPath>
</defs>
</svg>
