<svg width="85" height="85" viewBox="0 0 85 85" fill="none" xmlns="http://www.w3.org/2000/svg">
<g clip-path="url(#clip0)">
<path d="M17.4081 67.5223L18.5595 75.3169C18.6721 76.0784 18.4174 76.8482 17.8731 77.3926L10.9813 84.2844C9.55453 85.7111 7.11112 84.8809 6.84882 82.8804L9.02893 76.088L17.4081 67.5223Z" fill="#FFDE55"/>
<path d="M82.824 76.4908H9.91276C9.19408 76.4908 8.61169 75.9083 8.61169 75.1898V2.07195H11.2137V73.8888H82.8238L82.824 76.4908Z" fill="#B39A7C"/>
<path d="M82.824 73.8886H71.1266C71.9407 74.7853 72.7834 75.652 73.6517 76.4906H82.824V73.8886Z" fill="#957856"/>
<path d="M11.2138 13.9658V2.07195H8.61169V11.4553C9.45024 12.3186 10.3175 13.1563 11.2138 13.9658Z" fill="#957856"/>
<path d="M54.1643 39.0558C57.5572 41.1662 61.3345 43.9629 66.3623 48.9907C78.032 60.6604 77.6816 65.5935 84.631 74.618C85.8243 76.1674 83.8731 78.1637 82.2983 77.0039C79.0943 74.6442 75.4432 71.3471 72.0599 66.8704C72.0599 66.8704 58.284 50.2717 46.47 46.7498C46.4775 46.7569 54.1643 39.0558 54.1643 39.0558Z" fill="#CC7400"/>
<path d="M45.9442 30.8849C43.8339 27.492 41.0372 23.7147 36.0094 18.6869C24.3397 7.01685 19.4065 7.36748 10.3819 0.41791C8.83252 -0.775409 6.83618 1.17577 7.99597 2.75059C10.3557 5.95452 13.6528 9.6057 18.1295 12.9889C18.1295 12.9889 34.7282 26.7649 38.2501 38.5789C38.2431 38.5717 45.9442 30.8849 45.9442 30.8849Z" fill="#CC7400"/>
<path d="M23.1973 12.6193C18.7343 9.24629 15.4441 5.60721 13.0858 2.41039C12.2207 1.82219 11.3239 1.17722 10.3821 0.451889C8.83268 -0.741273 6.83651 1.20976 7.99629 2.78459C10.356 5.98855 13.6531 9.63975 18.1299 13.023C18.1299 13.023 34.7286 26.7991 38.2504 38.6132C38.2469 38.6097 40.1131 36.7435 42.0082 34.8501C36.8313 23.9348 23.1973 12.6193 23.1973 12.6193Z" fill="#AA6100"/>
<path d="M72.464 61.8031C75.837 66.2661 79.476 69.5563 82.6728 71.9146C83.261 72.7797 83.906 73.6765 84.6315 74.6184C85.8246 76.1679 83.8736 78.1642 82.2988 77.0044C79.0949 74.6447 75.4437 71.3476 72.0605 66.8708C72.0605 66.8708 58.2845 50.2721 46.4705 46.7503C46.474 46.7538 48.3402 44.8876 50.2336 42.9925C61.1486 48.1691 72.464 61.8031 72.464 61.8031Z" fill="#AA6100"/>
<path d="M55.2148 42.7532L50.5936 47.3744C49.2434 48.7246 47.0339 48.7246 45.6836 47.3744L37.6257 39.3165C36.2755 37.9663 36.2755 35.7568 37.6257 34.4064L42.2469 29.7852C43.5971 28.435 45.8066 28.435 47.157 29.7852L55.2148 37.8431C56.5652 39.1933 56.5652 41.403 55.2148 42.7532Z" fill="#5F4D37"/>
<path d="M37.6257 34.4066C36.2755 35.7568 36.2755 37.9663 37.6257 39.3167L45.6836 47.3746C47.0338 48.7248 49.2433 48.7248 50.5936 47.3746L53.311 44.6572L40.3674 31.6649L37.6257 34.4066Z" fill="#554431"/>
<path d="M17.4776 67.592L9.68302 66.4405C8.92151 66.328 8.15169 66.5826 7.60733 67.127L0.715204 74.0188C-0.711532 75.4455 0.118711 77.8889 2.11919 78.1512L9.02875 76.0883L17.4776 67.592Z" fill="#FFE477"/>
<path d="M11.2309 76.0883C10.623 76.6962 9.63702 76.6962 9.02907 76.0883C9.02907 76.0883 7.88057 74.9398 8.98142 73.8388L57.6179 25.2023L59.8674 27.4518L11.2309 76.0883Z" fill="#FFC477"/>
<path d="M59.9194 25.0805C58.5366 23.6978 56.2737 23.6976 54.8911 25.0805L54.1595 25.8122C52.7768 27.1949 52.7768 29.4579 54.1595 30.8404C55.5422 32.223 57.8052 32.2232 59.1878 30.8404L59.9194 30.1088C61.3021 28.7262 61.3021 26.4634 59.9194 25.0805Z" fill="#FFE477"/>
<path d="M68.7224 14.0972L50.5125 21.1736C49.1176 21.7157 49.0697 23.6718 50.4361 24.2815L57.5454 27.454L60.718 34.5633C61.3279 35.9299 63.2839 35.8818 63.8258 34.4869L70.9022 16.277C71.4329 14.9115 70.0879 13.5665 68.7224 14.0972Z" fill="#D8D7DA"/>
<path d="M68.7224 14.0979L50.5125 21.1743C49.1176 21.7164 49.0698 23.6725 50.4361 24.2821L57.5454 27.4547L70.5233 14.4768C70.0827 14.0362 69.4052 13.8325 68.7224 14.0979Z" fill="#C6C5CA"/>
</g>
<defs>
<clipPath id="clip0">
<rect width="85" height="85" fill="white"/>
</clipPath>
</defs>
</svg>
