<svg width="85" height="85" viewBox="0 0 85 85" fill="none" xmlns="http://www.w3.org/2000/svg">
<g clip-path="url(#clip0)">
<path d="M84.1658 46.8793L76.1797 38.8934C75.0672 37.781 73.2469 37.781 72.1344 38.8934C71.0219 40.0059 71.0219 41.8262 72.1344 42.9386L80.1204 50.9245C81.2329 52.0369 83.0533 52.0369 84.1658 50.9245C85.2782 49.812 85.2782 47.9917 84.1658 46.8793Z" fill="#FF6243"/>
<path d="M56.7122 43.7326H74.0815C75.6547 43.7326 76.9418 42.4456 76.9418 40.8725C76.9418 39.2994 75.6547 38.0124 74.0815 38.0124H56.7122C55.1391 38.0124 53.8519 39.2994 53.8519 40.8725C53.8519 42.4453 55.1391 43.7326 56.7122 43.7326Z" fill="#FF3501"/>
<path d="M80.1058 57.1497L72.6816 48.6388C71.6473 47.4532 69.8313 47.3294 68.6456 48.3635C67.4601 49.3978 67.3362 51.2138 68.3703 52.3993L75.7946 60.9103C76.8288 62.0958 78.6449 62.2197 79.8304 61.1856C81.0163 60.1513 81.1401 58.3352 80.1058 57.1497Z" fill="#FF6243"/>
<path d="M52.93 52.1414L70.2589 53.3233C71.8285 53.4304 73.2002 52.2337 73.3073 50.6642C73.4144 49.0947 72.2178 47.7229 70.6482 47.6158L53.3193 46.434C51.7498 46.3269 50.378 47.5235 50.271 49.093C50.1637 50.6627 51.3605 52.0345 52.93 52.1414Z" fill="#FF3501"/>
<path d="M73.8577 66.7585L67.1772 57.6522C66.2465 56.3839 64.4472 56.1073 63.1788 57.0378C61.9105 57.9685 61.6339 59.7678 62.5644 61.0361L69.2449 70.1425C70.1756 71.4108 71.9749 71.6874 73.2432 70.7569C74.5118 69.8262 74.7883 68.0271 73.8577 66.7585Z" fill="#FF6243"/>
<path d="M47.2005 59.474L64.3682 62.112C65.9231 62.3509 67.3909 61.2741 67.6298 59.7192C67.8687 58.1643 66.7919 56.6965 65.237 56.4577L48.0693 53.8197C46.5144 53.5808 45.0466 54.6575 44.8076 56.2124C44.5688 57.7672 45.6456 59.2349 47.2005 59.474Z" fill="#FF3501"/>
<path d="M66.1535 75.5979L60.0279 66.1095C59.1746 64.7878 57.395 64.4045 56.0732 65.258C54.7516 66.1113 54.3684 67.8908 55.2217 69.2126L61.3474 78.7011C62.2007 80.0228 63.9802 80.4061 65.302 79.5526C66.6235 78.6991 67.0069 76.9196 66.1535 75.5979Z" fill="#FF6243"/>
<path d="M39.9778 66.7451L56.9577 70.4018C58.4957 70.733 60.025 69.7457 60.3562 68.2078C60.6874 66.6698 59.7001 65.1404 58.1622 64.8092L41.1822 61.1526C39.6443 60.8214 38.1149 61.8087 37.7837 63.3466C37.4524 64.8844 38.4398 66.4138 39.9778 66.7451Z" fill="#FF3501"/>
<path d="M41.1822 61.1473L58.1622 64.804C58.3822 64.8513 58.5893 64.9259 58.7844 65.0187C56.72 66.837 54.4796 68.2927 52.1204 69.3548L39.9778 66.7398C38.4398 66.4086 37.4524 64.8792 37.7837 63.3412C38.1149 61.8034 39.6443 60.8163 41.1822 61.1473Z" fill="#CD2A00"/>
<path d="M44.8077 56.215C45.0466 54.6601 46.5145 53.5834 48.0692 53.8223L65.2369 56.4602C65.3415 56.4764 65.4433 56.4989 65.5432 56.5257C64.5359 58.3709 63.3417 60.1256 61.9779 61.7475L47.2002 59.4768C45.6456 59.2377 44.5686 57.7699 44.8077 56.215Z" fill="#CD2A00"/>
<path d="M53.3194 46.434L68.8156 47.4908C68.4456 49.3974 67.8861 51.2828 67.1525 53.1116L52.9302 52.1416C51.3607 52.0345 50.164 50.6627 50.2711 49.0932C50.378 47.5235 51.7497 46.3269 53.3194 46.434Z" fill="#CD2A00"/>
<path d="M56.7122 38.0124H69.0168C69.2363 39.2833 69.3479 40.6293 69.3479 42.0515C69.3479 42.6113 69.3286 43.1723 69.2942 43.7335H56.7122C55.1391 43.7335 53.8519 42.4463 53.8519 40.8728C53.8519 39.2996 55.1391 38.0124 56.7122 38.0124Z" fill="#CD2A00"/>
<path d="M0.834416 46.8793L8.82045 38.8934C9.93292 37.781 11.7533 37.781 12.8658 38.8934C13.9782 40.0059 13.9782 41.8262 12.8658 42.9386L4.87973 50.9245C3.76725 52.0369 1.94689 52.0369 0.834416 50.9245C-0.278057 49.812 -0.278057 47.9917 0.834416 46.8793Z" fill="#FF6243"/>
<path d="M28.2878 43.7326H10.9185C9.34538 43.7326 8.05826 42.4456 8.05826 40.8725C8.05826 39.2994 9.34538 38.0124 10.9185 38.0124H28.2878C29.861 38.0124 31.1481 39.2994 31.1481 40.8725C31.1482 42.4453 29.861 43.7326 28.2878 43.7326Z" fill="#FF3501"/>
<path d="M4.89414 57.1497L12.3184 48.6388C13.3527 47.4532 15.1687 47.3294 16.3542 48.3635C17.5397 49.3978 17.6636 51.2138 16.6295 52.3993L9.20524 60.9103C8.17097 62.0958 6.35492 62.2197 5.1694 61.1856C3.98388 60.1513 3.86003 58.3352 4.89414 57.1497Z" fill="#FF6243"/>
<path d="M32.07 52.1414L14.7411 53.3233C13.1715 53.4304 11.7997 52.2337 11.6927 50.6642C11.5856 49.0947 12.7822 47.7229 14.3517 47.6158L31.6807 46.434C33.2502 46.3269 34.622 47.5235 34.729 49.093C34.8363 50.6627 33.6395 52.0345 32.07 52.1414Z" fill="#FF3501"/>
<path d="M11.1425 66.7585L17.823 57.6522C18.7535 56.3839 20.553 56.1073 21.8213 57.0378C23.0897 57.9685 23.3663 59.7678 22.4357 61.0361L15.7553 70.1425C14.8247 71.4108 13.0253 71.6874 11.7569 70.7569C10.4882 69.8262 10.2118 68.0271 11.1425 66.7585Z" fill="#FF6243"/>
<path d="M37.7995 59.474L20.6318 62.112C19.0769 62.3509 17.6091 61.2741 17.3701 59.7192C17.1312 58.1643 18.208 56.6965 19.7629 56.4577L36.9306 53.8197C38.4855 53.5808 39.9532 54.6575 40.1923 56.2124C40.4312 57.7672 39.3546 59.2349 37.7995 59.474Z" fill="#FF3501"/>
<path d="M18.8466 75.5979L24.9723 66.1095C25.8256 64.7878 27.6051 64.4045 28.9269 65.258C30.2486 66.1113 30.6319 67.8908 29.7784 69.2126L23.6528 78.7011C22.7995 80.0228 21.0199 80.4061 19.6981 79.5526C18.3765 78.6991 17.9933 76.9196 18.8466 75.5979Z" fill="#FF6243"/>
<path d="M45.0224 66.7451L28.0424 70.4018C26.5044 70.733 24.9751 69.7457 24.6439 68.2078C24.3127 66.6698 25.3 65.1404 26.838 64.8092L43.8179 61.1526C45.3559 60.8214 46.8852 61.8087 47.2164 63.3466C47.5476 64.8844 46.5603 66.4138 45.0224 66.7451Z" fill="#FF3501"/>
<path d="M43.8179 61.1473L26.838 64.804C26.618 64.8513 26.4108 64.9259 26.2158 65.0187C28.2802 66.837 30.5206 68.2927 32.8798 69.3548L45.0224 66.7398C46.5603 66.4086 47.5478 64.8792 47.2164 63.3412C46.8852 61.8034 45.3559 60.8163 43.8179 61.1473Z" fill="#CD2A00"/>
<path d="M40.1923 56.215C39.9534 54.6601 38.4855 53.5834 36.9307 53.8223L19.763 56.4602C19.6584 56.4764 19.5567 56.4989 19.4567 56.5257C20.4641 58.3709 21.6583 60.1256 23.0221 61.7475L37.7998 59.4768C39.3546 59.2377 40.4313 57.7699 40.1923 56.215Z" fill="#CD2A00"/>
<path d="M31.6807 46.434L16.1846 47.491C16.5546 49.3975 17.1141 51.283 17.8477 53.1118L32.07 52.1418C33.6395 52.0347 34.8361 50.6629 34.729 49.0934C34.6221 47.5235 33.2505 46.3269 31.6807 46.434Z" fill="#CD2A00"/>
<path d="M28.2878 38.0124H15.9833C15.7639 39.2833 15.6523 40.6293 15.6523 42.0515C15.6523 42.6113 15.6716 43.1723 15.7059 43.7335H28.2878C29.861 43.7335 31.1481 42.4463 31.1481 40.8728C31.1482 39.2996 29.861 38.0124 28.2878 38.0124Z" fill="#CD2A00"/>
<path d="M47.9509 9.21646C47.9509 9.21646 44.2159 13.1016 55.789 21.1568C55.75 21.2128 59.7604 15.4514 59.7604 15.4514L47.9509 9.21646Z" fill="#FF3501"/>
<path d="M51.9034 15.5265L54.0549 12.4356L59.7603 15.448C59.7603 15.448 55.75 21.2094 55.7888 21.1536C53.7481 19.7332 52.1851 18.4429 50.9919 17.2805C51.2184 16.663 51.5232 16.0727 51.9034 15.5265Z" fill="#CD2A00"/>
<path d="M62.3767 11.6913C62.3767 11.6913 54.4805 4.54248 47.0538 5.01596C45.5012 5.11507 44.9349 7.10776 46.2117 7.99611C50.6943 11.1144 58.8293 16.7877 58.8293 16.7877L62.3767 11.6913Z" fill="#FF5023"/>
<path d="M55.8564 9.84795C56.3095 9.19683 56.8535 8.6279 57.4648 8.15292C60.3863 9.88746 62.3767 11.6891 62.3767 11.6891L58.8293 16.7856C58.8293 16.7856 56.461 15.1341 53.5764 13.1234L55.8564 9.84795Z" fill="#FF3501"/>
<path d="M48.9757 41.4867C50.7964 43.5071 53.9393 43.6706 55.9597 41.85L71.7561 27.6161C73.7765 25.7955 73.94 22.6529 72.1193 20.6324C70.2986 18.612 67.156 18.4485 65.1354 20.2691L49.3388 34.503C47.3186 36.3236 47.155 39.4662 48.9757 41.4867Z" fill="#FF3501"/>
<path d="M58.7039 11.8312C60.1069 9.81544 62.9108 9.38098 64.8551 10.8809C69.9565 14.8162 77.1563 21.5113 73.6962 26.4823C70.2362 31.4533 61.4575 27.0263 55.9957 23.6089C53.9139 22.3063 53.3479 19.526 54.7509 17.5104L58.7039 11.8312Z" fill="#FF6243"/>
<path d="M36.0245 41.4899C34.2038 43.5103 31.0609 43.6739 29.0405 41.8532L13.2441 27.619C11.2237 25.7983 11.0602 22.6556 12.8809 20.635C14.7016 18.6146 17.8442 18.4511 19.8648 20.2718L35.6612 34.506C37.6816 36.3267 37.8452 39.4693 36.0245 41.4899Z" fill="#FF3501"/>
<path d="M37.0493 9.21646C37.0493 9.21646 40.7843 13.1016 29.2112 21.1568C29.2502 21.2128 25.2397 15.4514 25.2397 15.4514L37.0493 9.21646Z" fill="#FF3501"/>
<path d="M22.6233 11.6913C22.6233 11.6913 30.5195 4.54248 37.9464 5.01596C39.499 5.11507 40.0653 7.10776 38.7885 7.99611C34.3059 11.1144 26.1709 16.7877 26.1709 16.7877L22.6233 11.6913Z" fill="#FF5023"/>
<path d="M33.0967 15.5265L30.9452 12.4356L25.2399 15.448C25.2399 15.448 29.2501 21.2094 29.2113 21.1536C31.252 19.7332 32.815 18.4429 34.0082 17.2805C33.7816 16.663 33.4767 16.0727 33.0967 15.5265Z" fill="#CD2A00"/>
<path d="M29.1438 9.84795C28.6907 9.19683 28.1467 8.6279 27.5354 8.15292C24.6139 9.88746 22.6235 11.6891 22.6235 11.6891L26.1709 16.7856C26.1709 16.7856 28.5392 15.1341 31.4238 13.1234L29.1438 9.84795Z" fill="#FF3501"/>
<path d="M26.2963 11.8312C24.8933 9.81544 22.0894 9.38098 20.145 10.8809C15.0437 14.8162 7.84392 21.5113 11.304 26.4823C14.7641 31.4533 23.5429 27.0265 29.0045 23.609C31.0863 22.3065 31.6523 19.5262 30.2493 17.5106L26.2963 11.8312Z" fill="#FF6243"/>
<path d="M27.3574 13.3561L26.2961 11.8312C24.8931 9.81548 22.0892 9.38102 20.1449 10.8808C15.0435 14.816 7.84374 21.5111 11.3038 26.4822C12.1178 27.6514 13.2258 28.3005 14.5159 28.5652C15.6222 23.2028 27.2266 13.4408 27.3574 13.3561Z" fill="#FF5023"/>
<path d="M57.6426 13.3561L58.7039 11.8312C60.1069 9.81548 62.9108 9.38102 64.8551 10.8808C69.9565 14.816 77.1562 21.5111 73.6961 26.4822C72.8822 27.6514 71.7742 28.3005 70.4841 28.5652C69.3777 23.2028 57.7736 13.4408 57.6426 13.3561Z" fill="#FF5023"/>
<path d="M65.8784 42.05C65.8784 54.9616 55.4116 67.9787 42.5001 67.9787C29.5885 67.9787 19.1217 54.9616 19.1217 42.05C19.1217 29.1384 29.5885 26.1526 42.5001 26.1526C55.4116 26.1526 65.8784 29.1384 65.8784 42.05Z" fill="#FF6243"/>
<path d="M54.3419 57.3312C53.7968 56.863 53.7346 56.0415 54.2027 55.4965C54.5529 55.0891 54.8927 54.6621 55.2131 54.2275C55.6394 53.6491 56.4539 53.5258 57.0323 53.9521C57.6107 54.3782 57.7342 55.1927 57.3077 55.7713C56.9491 56.2579 56.6035 56.7684 56.1765 57.1924C55.3946 57.9682 54.5872 57.5418 54.3419 57.3312Z" fill="#FF5023"/>
<path d="M43.2946 62.8111C43.2467 62.0941 43.6788 61.4383 44.3895 61.3324C46.9292 60.9535 49.452 59.7886 51.6849 57.9634C52.2414 57.5085 53.061 57.5912 53.5156 58.1474C53.9705 58.7037 53.8879 59.5233 53.3316 59.978C50.7358 62.0999 47.7764 63.4582 44.7733 63.9061C44.7083 63.9156 43.3748 64.0079 43.2946 62.8111Z" fill="#FF5023"/>
<path d="M29.1836 40.928C29.1836 34.0532 31.6091 29.4785 35.6499 26.5028C26.0809 27.5947 19.1216 31.5228 19.1216 42.0507C19.1216 54.9623 29.5884 67.9794 42.4999 67.9794C42.7929 67.9794 43.0843 67.9705 43.3747 67.9572C34.8866 62.0689 29.1836 51.4705 29.1836 40.928Z" fill="#FF5023"/>
<path d="M54.7668 51.0709C54.4252 51.0709 54.0903 50.9321 53.8474 50.6892C53.6046 50.4482 53.4658 50.1117 53.4658 49.7699C53.4658 49.4282 53.6046 49.0915 53.8474 48.8505C54.0903 48.6076 54.425 48.4688 54.7668 48.4688C55.1103 48.4688 55.4452 48.6076 55.6879 48.8505C55.9289 49.0915 56.0677 49.428 56.0677 49.7699C56.0677 50.1115 55.9289 50.4482 55.6879 50.6892C55.445 50.9321 55.1103 51.0709 54.7668 51.0709Z" fill="#FF5023"/>
<path d="M52.2392 38.0124C51.8976 38.0124 51.5627 37.8737 51.3198 37.6308C51.077 37.3898 50.9382 37.0531 50.9382 36.7115C50.9382 36.3699 51.077 36.0333 51.3198 35.7922C51.5627 35.5494 51.8974 35.4106 52.2392 35.4106C52.5827 35.4106 52.9176 35.5494 53.1603 35.7922C53.4014 36.0333 53.5401 36.3699 53.5401 36.7115C53.5401 37.0531 53.4014 37.3898 53.1603 37.6308C52.9176 37.8737 52.5827 38.0124 52.2392 38.0124Z" fill="#FF5023"/>
<path d="M42.5001 41.834C42.1584 41.834 41.8236 41.6952 41.5807 41.4523C41.3378 41.2112 41.199 40.8745 41.199 40.5328C41.199 40.1911 41.3378 39.8544 41.5807 39.6133C41.8236 39.3704 42.1584 39.2316 42.5001 39.2316C42.8436 39.2316 43.1784 39.3704 43.4212 39.6133C43.6622 39.8544 43.801 40.1911 43.801 40.5328C43.801 40.8745 43.6622 41.2112 43.4212 41.4523C43.1783 41.6954 42.8436 41.834 42.5001 41.834Z" fill="#FF5023"/>
<path d="M46.4089 56.0773C46.0673 56.0773 45.7324 55.9385 45.4895 55.6957C45.2466 55.4546 45.1078 55.1181 45.1078 54.7763C45.1078 54.4346 45.2466 54.0979 45.4895 53.8569C45.7324 53.614 46.0671 53.4752 46.4089 53.4752C46.7524 53.4752 47.0873 53.614 47.33 53.8569C47.571 54.0979 47.7098 54.4344 47.7098 54.7763C47.7098 55.1179 47.571 55.4546 47.33 55.6957C47.0873 55.9385 46.7524 56.0773 46.4089 56.0773Z" fill="#FF5023"/>
<path d="M46.6339 47.6643C47.719 47.6643 48.5987 46.7847 48.5987 45.6995C48.5987 44.6144 47.719 43.7347 46.6339 43.7347C45.5487 43.7347 44.6691 44.6144 44.6691 45.6995C44.6691 46.7847 45.5487 47.6643 46.6339 47.6643Z" fill="#FF5023"/>
<path d="M39.492 52.4243C40.5771 52.4243 41.4568 51.5446 41.4568 50.4595C41.4568 49.3744 40.5771 48.4947 39.492 48.4947C38.4069 48.4947 37.5272 49.3744 37.5272 50.4595C37.5272 51.5446 38.4069 52.4243 39.492 52.4243Z" fill="#FF5023"/>
<path d="M34.1214 44.4627C35.2065 44.4627 36.0862 43.5832 36.0862 42.4982C36.0862 41.4133 35.2065 40.5338 34.1214 40.5338C33.0363 40.5338 32.1566 41.4133 32.1566 42.4982C32.1566 43.5832 33.0363 44.4627 34.1214 44.4627Z" fill="#FF5023"/>
<path d="M57.7948 44.4627C58.8799 44.4627 59.7596 43.5832 59.7596 42.4982C59.7596 41.4133 58.8799 40.5338 57.7948 40.5338C56.7097 40.5338 55.83 41.4133 55.83 42.4982C55.83 43.5832 56.7097 44.4627 57.7948 44.4627Z" fill="#FF5023"/>
<path d="M31.9656 29.9601L35.471 33.4869C36.3142 34.3354 37.7592 33.9591 38.0818 32.8073L39.3624 28.233L31.9656 29.9601Z" fill="#FF3501"/>
<path d="M53.0201 29.9601L49.5146 33.4869C48.6714 34.3354 47.2264 33.9591 46.9039 32.8073L45.6232 28.233L53.0201 29.9601Z" fill="#FF3501"/>
<path d="M35.1554 31.3359C37.5859 31.3359 39.5563 29.3655 39.5563 26.9349C39.5563 24.5044 37.5859 22.534 35.1554 22.534C32.7248 22.534 30.7545 24.5044 30.7545 26.9349C30.7545 29.3655 32.7248 31.3359 35.1554 31.3359Z" fill="#D1E7F8"/>
<path d="M35.1556 28.236C34.8139 28.236 34.479 28.0972 34.2362 27.8543C33.9933 27.6133 33.8545 27.2766 33.8545 26.9349C33.8545 26.5933 33.9933 26.2566 34.2362 26.0155C34.479 25.7726 34.8139 25.6339 35.1556 25.6339C35.499 25.6339 35.8339 25.7726 36.0766 26.0155C36.3177 26.2566 36.4565 26.5933 36.4565 26.9349C36.4565 27.2766 36.3177 27.6133 36.0766 27.8543C35.8337 28.097 35.499 28.236 35.1556 28.236Z" fill="#3E3D42"/>
<path d="M49.8448 31.3359C52.2754 31.3359 54.2457 29.3655 54.2457 26.9349C54.2457 24.5044 52.2754 22.534 49.8448 22.534C47.4143 22.534 45.4439 24.5044 45.4439 26.9349C45.4439 29.3655 47.4143 31.3359 49.8448 31.3359Z" fill="#D1E7F8"/>
<path d="M49.8446 28.236C49.503 28.236 49.1681 28.0972 48.9252 27.8543C48.6824 27.6133 48.5436 27.2766 48.5436 26.9349C48.5436 26.5933 48.6824 26.2566 48.9252 26.0155C49.1681 25.7726 49.503 25.6339 49.8446 25.6339C50.1881 25.6339 50.523 25.7726 50.7657 26.0155C51.0068 26.2566 51.1455 26.5933 51.1455 26.9349C51.1455 27.2766 51.0068 27.6133 50.7657 27.8543C50.5226 28.097 50.1881 28.236 49.8446 28.236Z" fill="#3E3D42"/>
</g>
<defs>
<clipPath id="clip0">
<rect width="85" height="85" fill="white"/>
</clipPath>
</defs>
</svg>
