<svg width="40" height="41" viewBox="0 0 40 41" fill="none" xmlns="http://www.w3.org/2000/svg">
<g clip-path="url(#clip0)">
<path d="M32.7566 13.7252C36.4591 21.3053 33.6285 30.299 26.4343 33.813C19.2402 37.3269 10.4065 34.0306 6.704 26.4505C3.00152 18.8704 5.83215 9.87663 13.0263 6.36266C20.2205 2.84869 29.0542 6.14503 32.7566 13.7252Z" fill="#E88623"/>
<path d="M30.9487 13.437C28.857 9.14687 24.9793 6.0339 20.4707 5.02495C12.7557 4.31436 6.07812 9.89362 5.21041 17.7754C4.34248 25.6574 9.5827 33.1338 17.1858 34.8619C22.4176 35.3557 27.3918 32.9358 30.2317 28.5149C33.0714 24.0941 33.345 18.3452 30.9487 13.437Z" fill="#FD9226"/>
<path d="M22.4582 21.6863C22.7775 22.3398 22.5335 23.115 21.9132 23.418C21.293 23.721 20.5315 23.4368 20.2123 22.7833C19.8931 22.1298 20.1371 21.3546 20.7574 21.0516C21.3776 20.7486 22.139 21.0328 22.4582 21.6863Z" fill="#E48422"/>
<path d="M28.2912 18.2511C28.5465 18.7738 28.3513 19.3941 27.8552 19.6365C27.359 19.8788 26.7498 19.6514 26.4945 19.1287C26.2391 18.606 26.4344 17.9857 26.9305 17.7433C27.4266 17.501 28.0359 17.7284 28.2912 18.2511Z" fill="#FBAF5F"/>
<path d="M16.9746 27.4501C17.7752 27.7188 18.6328 27.6643 19.3704 27.298L34.3628 19.975C34.3463 19.5992 34.3183 19.2231 34.2733 18.8463L18.9081 26.3514C18.3983 26.6024 17.8073 26.6412 17.2538 26.4602C15.5924 25.9201 13.8595 26.7665 13.2641 28.409C13.2548 28.4361 13.2477 28.4645 13.243 28.4931C13.122 29.1899 13.3047 29.9193 13.7433 30.489C14.2059 31.078 14.8869 31.4383 15.6067 31.476L15.7211 31.4822C16.1181 31.4979 16.5084 31.4111 16.8569 31.2297C16.9652 31.1771 17.0705 31.1185 17.1722 31.0542C17.9438 30.5663 18.2514 29.5685 17.9061 28.6715C17.8691 28.5757 17.8063 28.4922 17.7251 28.4311C17.2629 28.0861 16.6642 28.0259 16.1698 28.2751L15.7656 28.4726C15.5173 28.5938 15.4199 28.9039 15.5475 29.1652C15.6752 29.4266 15.9796 29.5404 16.2279 29.4191L16.6321 29.2217C16.7503 29.1628 16.8877 29.1532 17.0165 29.1945C17.0915 29.5772 16.9347 29.9586 16.6204 30.1571C16.3627 30.3402 16.0556 30.439 15.7368 30.4415L15.6226 30.4352C15.1982 30.415 14.7963 30.2045 14.5217 29.8592C14.2781 29.5451 14.1725 29.1437 14.2312 28.7566C14.6579 27.646 15.8418 27.082 16.9746 27.4501Z" fill="#D37A20"/>
<path d="M16.9746 27.4501C17.7752 27.7188 18.6328 27.6643 19.3704 27.298L32.5661 20.8526C32.5772 20.4656 32.5715 20.0768 32.5529 19.6866L18.9081 26.3514C18.3983 26.6024 17.8073 26.6412 17.2538 26.4602C15.5924 25.9201 13.8595 26.7665 13.2641 28.409C13.2548 28.4361 13.2477 28.4645 13.243 28.4931C13.122 29.1899 13.3047 29.9193 13.7433 30.489C14.2059 31.078 14.8869 31.4383 15.6067 31.476L15.7211 31.4822C16.1181 31.4979 16.5084 31.4111 16.8569 31.2297C16.9652 31.1771 17.0705 31.1185 17.1722 31.0542C17.9438 30.5663 18.2514 29.5685 17.9061 28.6715C17.8691 28.5757 17.8063 28.4922 17.7251 28.4311C17.2629 28.0861 16.6642 28.0259 16.1698 28.2751L15.7656 28.4726C15.5173 28.5938 15.4199 28.9039 15.5475 29.1652C15.6752 29.4266 15.9796 29.5404 16.2279 29.4191L16.6321 29.2217C16.7503 29.1628 16.8877 29.1532 17.0165 29.1945C17.0915 29.5772 16.9347 29.9586 16.6204 30.1571C16.3627 30.3402 16.0556 30.439 15.7368 30.4415L15.6226 30.4352C15.1982 30.415 14.7963 30.2045 14.5217 29.8592C14.2781 29.5451 14.1725 29.1437 14.2312 28.7566C14.6579 27.646 15.8418 27.082 16.9746 27.4501Z" fill="#E48422"/>
<path d="M15.6125 20.8037L15.0046 21.3522C13.3943 22.8065 11.4017 23.7471 9.25391 24.0672C8.15608 24.2339 7.09005 24.5508 6.08396 25.0093C6.20607 25.3355 6.34534 25.6585 6.48971 25.9835C7.42512 25.5533 8.41739 25.2566 9.44003 25.1018C11.7734 24.7538 13.9382 23.7316 15.6876 22.1515L16.2967 21.6009C16.9731 20.9906 17.7203 20.4682 18.523 20.0444L32.5142 13.2573C32.3486 12.9444 32.1769 12.6362 31.994 12.3391L18.0462 19.1026C17.1689 19.5657 16.352 20.1368 15.6125 20.8037Z" fill="#EEA65A"/>
<path d="M31.1649 13.9119C31.0934 13.7533 31.0237 13.5944 30.9467 13.4368C30.8697 13.2792 30.7832 13.1228 30.7003 12.9664L18.0461 19.1026C17.1689 19.5657 16.352 20.1368 15.6125 20.8037L15.0046 21.3522C13.3943 22.8065 11.4017 23.7471 9.25391 24.0672C8.15608 24.2339 7.09005 24.5508 6.08396 25.0093C6.20607 25.3355 6.34512 25.658 6.48971 25.9835C7.42512 25.5533 8.41738 25.2566 9.44003 25.1018C11.7734 24.7538 13.9382 23.7316 15.6876 22.1515L16.2967 21.6009C16.973 20.9907 17.7203 20.4682 18.523 20.0444L31.1649 13.9119Z" fill="#FBAF5F"/>
<path d="M30.0337 9.77939L16.7232 16.3278C15.8914 16.7037 15.015 16.9744 14.1127 17.1338L13.3076 17.2763C10.985 17.684 8.84702 18.7635 7.13814 20.391C6.56296 20.9359 5.9329 21.4162 5.25793 21.8246C5.31356 22.191 5.38055 22.5573 5.46122 22.9244C6.32116 22.4419 7.11849 21.8541 7.83703 21.1728C9.40998 19.6758 11.3768 18.6825 13.5137 18.3062L14.3194 18.1643C15.3053 17.9898 16.2627 17.6942 17.1716 17.2835L30.7544 10.5998C30.523 10.3172 30.2827 10.0439 30.0337 9.77939Z" fill="#F0A85B"/>
<path d="M29.5984 11.1695C29.3903 10.8762 29.1734 10.5914 28.9475 10.3151L16.7259 16.3288C15.8941 16.7047 15.0177 16.9754 14.1155 17.135L13.3105 17.2772C10.9868 17.6843 8.84781 18.7634 7.13817 20.391C6.56298 20.9359 5.93292 21.4162 5.25795 21.8246C5.31381 22.1915 5.38057 22.5573 5.46124 22.9244C6.32118 22.4419 7.11851 21.8541 7.83705 21.1728C9.41001 19.6758 11.3768 18.6825 13.5137 18.3062L14.3194 18.1643C15.3053 17.9898 16.2628 17.6942 17.1716 17.2835L29.5984 11.1695Z" fill="#FBAF5F"/>
<path d="M20.9018 5.07117L20.3938 5.242C19.0476 5.6932 17.7799 6.34644 16.6302 7.18108C13.4577 9.48287 10.0624 11.4502 6.49246 13.055C6.28079 13.5088 6.09175 13.9744 5.92653 14.4498C6.82057 14.0672 7.70828 13.6705 8.58252 13.2435C11.6097 11.7649 14.5035 10.0254 17.2337 8.04294C18.3049 7.26441 19.4862 6.65565 20.741 6.23535L22.9726 5.48712C22.2907 5.29864 21.5986 5.15959 20.9018 5.07117Z" fill="#D37A20"/>
<path d="M20.7936 5.1076L20.3945 5.24384C19.0483 5.69504 17.7806 6.34829 16.6309 7.18293C13.4581 9.48402 10.0625 11.4508 6.49229 13.055C6.38667 13.2821 6.28671 13.5112 6.1924 13.7431L6.19024 13.7464C6.09648 13.9783 6.00837 14.2122 5.92569 14.4484C6.81972 14.0658 7.70743 13.6691 8.58167 13.2421C11.6091 11.7639 14.5031 10.0249 17.2335 8.04294C18.3047 7.26441 19.486 6.65565 20.7408 6.23535L22.5007 5.64539C21.9412 5.43151 21.3711 5.25202 20.7936 5.1076Z" fill="#E48422"/>
<path d="M27.5023 7.60547C27.1725 7.37903 26.835 7.16919 26.4903 6.96892L25.1094 7.75246C22.3527 9.31592 19.5057 10.7128 16.5823 11.9363C13.9683 13.0288 11.4148 14.2592 8.93152 15.6227L5.18214 17.6816C5.13389 18.0962 5.10541 18.514 5.09075 18.9339L9.43355 16.5487C11.8871 15.2017 14.41 13.986 16.9924 12.9059C19.9517 11.6688 22.833 10.2554 25.6226 8.67246L27.5023 7.60547Z" fill="#D87D20"/>
<path d="M26.6893 8.06691C26.3913 7.82493 26.0871 7.59255 25.7746 7.37539L25.1093 7.75244C22.3526 9.31591 19.5055 10.7128 16.5822 11.9363C13.9682 13.0288 11.4147 14.2592 8.93139 15.6227L5.18202 17.6816C5.13377 18.0962 5.10529 18.514 5.09062 18.9339L9.43342 16.5487C11.887 15.2017 14.4099 13.986 16.9922 12.9059C19.9516 11.6688 22.8329 10.2554 25.6225 8.67244L26.6893 8.06691Z" fill="#E48422"/>
<path d="M12.2859 20.793C12.5413 21.3158 12.346 21.9361 11.8499 22.1784C11.3538 22.4207 10.7445 22.1934 10.4892 21.6706C10.2339 21.1479 10.4291 20.5276 10.9252 20.2853C11.4213 20.043 12.0306 20.2703 12.2859 20.793Z" fill="#E48422"/>
<path d="M9.9856 27.0945L10.884 26.6557L11.3463 27.6022L10.4479 28.041L9.9856 27.0945Z" fill="#E48422"/>
<path d="M25.304 30.3596L26.2023 29.9208L26.6647 30.8674L25.7663 31.3062L25.304 30.3596Z" fill="#E48422"/>
<path d="M28.4482 28.8238L29.3466 28.385L29.8089 29.3316L28.9106 29.7704L28.4482 28.8238Z" fill="#E48422"/>
<path d="M18.7004 8.86694L19.5988 8.42814L20.0611 9.3747L19.1628 9.81351L18.7004 8.86694Z" fill="#E48422"/>
<path d="M11.8972 29.7395C11.0101 29.7142 10.1401 29.9174 9.36559 30.3312C9.61909 30.6043 9.88183 30.8653 10.1528 31.1191C10.7042 30.8803 11.3032 30.7664 11.9105 30.7846C12.1896 30.7931 12.413 30.5663 12.4097 30.2783C12.4064 29.99 12.1774 29.7497 11.8981 29.7413L11.8972 29.7395Z" fill="#E48422"/>
<path d="M34.0546 23.8666L33.4345 24.0687C30.5288 25.0163 27.7338 26.2639 25.0901 27.7928L23.3178 28.8184C22.7483 29.1484 22.2249 29.5535 21.7602 30.0243C20.8042 30.9956 19.573 31.6319 18.2295 31.8496L17.8406 31.9131C17.1289 32.0289 16.4408 32.247 15.7954 32.5614L13.6842 33.5926C14.0916 33.7998 14.506 33.9881 14.9282 34.1574L16.26 33.5069C16.822 33.2321 17.4218 33.0413 18.0418 32.9402L18.4306 32.8763C19.9737 32.6263 21.3878 31.8947 22.4854 30.7787C22.8899 30.3687 23.3457 30.0161 23.8415 29.7293L25.609 28.706C28.1863 27.2152 30.9112 25.9988 33.7437 25.0743C33.8636 24.6775 33.9686 24.275 34.0546 23.8666Z" fill="#F0A85B"/>
<path d="M25.089 27.7909L23.3167 28.8165C22.7471 29.1463 22.2238 29.5516 21.7591 30.0224C20.8029 30.9936 19.5719 31.63 18.2284 31.8478L17.8395 31.9112C17.1281 32.0277 16.4402 32.2466 15.7953 32.5614L13.6858 33.5918C13.7079 33.6027 13.7297 33.6144 13.752 33.6255C14.1296 33.8158 14.5135 33.9912 14.9035 34.1482L14.928 34.1574L16.2576 33.508C16.8196 33.2331 17.4192 33.0425 18.0392 32.9414L18.4282 32.8774C19.9713 32.6274 21.3852 31.8959 22.483 30.7797C22.8875 30.3698 23.3433 30.0172 23.8392 29.7303L25.6088 28.706C27.5199 27.601 29.5137 26.6469 31.5733 25.8513C31.7336 25.431 31.8751 25.0032 31.9977 24.5684C29.6044 25.44 27.2938 26.5179 25.089 27.7909Z" fill="#FBAF5F"/>
</g>
<defs>
<clipPath id="clip0">
<rect width="28.9944" height="30.5499" fill="white" transform="translate(0 12.7253) rotate(-26.033)"/>
</clipPath>
</defs>
</svg>
