<svg width="29" height="29" viewBox="0 0 29 29" fill="none" xmlns="http://www.w3.org/2000/svg">
<path d="M27 6.99999V22L14.5 29L2 22V6.99999L4.59001 5.54999L7.18001 4.09999L9.77002 2.64999L12.16 1.30998L14.5 0L19.355 2.72L24.535 5.62L27 6.99999Z" fill="#CC6F56"/>
<path d="M19.355 2.72L17.015 4.02998L14.625 2.68998L12.16 1.30998L14.5 0L19.355 2.72Z" fill="#F09372"/>
<path d="M14.625 2.68998L12.235 4.02999L9.77002 2.64999L12.16 1.30999L14.625 2.68998Z" fill="#F0785A"/>
<path d="M24.535 5.61999L22.195 6.92998L19.605 5.47998L17.015 4.02998L19.355 2.71999L24.535 5.61999Z" fill="#CC6F56"/>
<path d="M24.6601 8.30997L22.2701 9.64998L19.8051 8.26998L17.2151 6.81998L19.6051 5.47998L22.1951 6.92998L24.6601 8.30997Z" fill="#F09372"/>
<path d="M22.2701 9.64998L19.5851 11.15L19.5001 11L17.2151 9.71999L19.8051 8.26999L22.2701 9.64998Z" fill="#F0785A"/>
<path d="M19.805 8.26998L17.215 9.71998L14.625 8.26998L12.035 6.81998L14.625 5.36998L17.215 6.81998L19.805 8.26998Z" fill="#F0785A"/>
<path d="M14.6251 5.36998L12.0351 6.81998L9.64505 5.47998L7.18005 4.09999L9.77006 2.64999L12.2351 4.02998L14.6251 5.36998Z" fill="#F09372"/>
<path d="M9.64497 5.47998L7.05497 6.92998L4.58997 5.54999L7.17997 4.09999L9.64497 5.47998Z" fill="#F0785A"/>
<path d="M19.5851 11.15L17.09 12.55L14.625 11.17L12.035 9.71998L14.625 8.26998L17.215 9.71998L19.5 11L19.5851 11.15Z" fill="#F09372"/>
<path d="M17.0901 12.55L14.5001 14L12.4901 12.875L12.2151 12.72L12.1001 12.655L12.1601 12.55L14.6251 11.17L17.0901 12.55Z" fill="#F09372"/>
<path d="M14.625 11.17L12.16 12.55L12.1001 12.655L10.3251 11.66L10 11.48L7.73505 10.21L7.49506 10.075L6.92004 9.75499L6.98003 9.64997L9.44503 8.26998L12.035 9.71998L14.625 11.17Z" fill="#F0785A"/>
<path d="M9.44501 8.26999L6.98001 9.64998L6.92003 9.75499L2.57502 7.32001L2 6.99999L4.59001 5.54999L7.05501 6.92998L9.44501 8.26999Z" fill="#F09372"/>
<path d="M27.0001 6.99999L24.6601 8.30998L22.1951 6.92998L24.5351 5.62L27.0001 6.99999Z" fill="#F0785A"/>
<path d="M27 6.99998V12L14.5 19V14L27 6.99998Z" fill="#804537"/>
<path d="M27 12V17L14.5 24V19L27 12Z" fill="#CC6F56"/>
<path d="M27 17V22L14.5 29V24L27 17Z" fill="#804537"/>
<path d="M14.5 19V24L2 17V12L14.5 19Z" fill="#804537"/>
<path d="M14.6251 8.26998L12.0351 9.71998L9.44506 8.26998L7.05505 6.92998L9.64506 5.47998L12.0351 6.81998L14.6251 8.26998Z" fill="#CC6F56"/>
<path d="M19.6051 5.47998L17.2151 6.81998L14.6251 5.36998L12.2351 4.02998L14.6251 2.68998L17.0151 4.02998L19.6051 5.47998Z" fill="#CC6F56"/>
</svg>
